<mxfile host="Electron" agent="Mozilla/5.0 (Windows NT 10.0; Win64; x64) AppleWebKit/537.36 (KHTML, like Gecko) draw.io/28.0.6 Chrome/138.0.7204.100 Electron/37.2.3 Safari/537.36" version="28.0.6">
  <diagram name="Página-1" id="lOUC5GRlwntf1YMw8zRV">
    <mxGraphModel dx="3679" dy="2851" grid="1" gridSize="10" guides="1" tooltips="1" connect="1" arrows="1" fold="1" page="1" pageScale="1" pageWidth="827" pageHeight="1169" math="0" shadow="0">
      <root>
        <mxCell id="0" />
        <mxCell id="1" parent="0" />
        <mxCell id="JsLvO-6XAozTmM2IjSxH-71" value="" style="rounded=0;whiteSpace=wrap;html=1;" parent="1" vertex="1">
          <mxGeometry x="1330" y="270" width="930" height="780" as="geometry" />
        </mxCell>
        <mxCell id="JsLvO-6XAozTmM2IjSxH-40" value="" style="rounded=0;whiteSpace=wrap;html=1;" parent="1" vertex="1">
          <mxGeometry x="1415" y="435" width="305" height="580" as="geometry" />
        </mxCell>
        <mxCell id="JsLvO-6XAozTmM2IjSxH-28" value="" style="rounded=0;whiteSpace=wrap;html=1;" parent="1" vertex="1">
          <mxGeometry x="1442.5" y="465" width="245" height="140" as="geometry" />
        </mxCell>
        <mxCell id="JsLvO-6XAozTmM2IjSxH-1" value="&lt;font style=&quot;font-size: 20px;&quot;&gt;Se cuenta con una cadena de inmobiliarias ubicadas en distintas ciudades. Cada&lt;br&gt;sucursal está a cargo de un gerente de ventas, del cual dependen los empleados de esa&lt;br&gt;sucursal.&lt;br&gt;El movimiento inmobiliario está a cargo de cada sucursal.&lt;/font&gt;&lt;div&gt;&lt;font style=&quot;font-size: 20px;&quot;&gt;Cada sucursal se encarga del alquiler y venta de inmuebles, y se distinguen por un número de&lt;br&gt;sucursal que es único, se tiene además la dirección, el teléfono y la ciudad donde está ubicada.&lt;br&gt;En una ciudad puede haber más de una sucursal. También interesan los datos del gerente y de&lt;br&gt;los empleados de cada sucursal: DNI, nombre, dirección y teléfono personal.&lt;br&gt;De las propiedades que posee una sucursal, se necesita el número de ambientes, los metros&lt;br&gt;cuadrados del inmueble, ubicación, cantidad de habitaciones, zona, y si posee o no teléfono,&lt;br&gt;como también el valor de venta o alquiler. Existe un código interno (en cada sucursal) para&lt;br&gt;diferenciar las propiedades.&lt;br&gt;Se dispone de información respecto del/de los propietario/s de los inmuebles, que pueden&lt;br&gt;poseer varias propiedades, ya sea para alquilar o vender. De cada propietario se necesita el&lt;br&gt;DNI, apellido y nombre, estado civil, dirección y teléfono.&lt;br&gt;Además se genera información de los clientes que acceden a cada sucursal. Cada cliente&lt;br&gt;puede tener propiedades alquiladas o compradas.&lt;br&gt;De los clientes, propietarios e inmuebles se guarda información histórica.&lt;br&gt;Es importante distinguir en una venta o alquiler de un inmueble, qué empleado realizó la&lt;br&gt;operación.&lt;br&gt;Se debe controlar los pagos, ya sea de alquiler o de la venta de un inmueble.&lt;br&gt;Si es alquiler interesa el monto y la fecha de pago.&lt;br&gt;Si es una venta, puede ser total o con un anticipo y el resto en cuotas. En cada caso interesa el&lt;br&gt;monto abonado y la fecha.&lt;/font&gt;&lt;/div&gt;" style="text;whiteSpace=wrap;html=1;" parent="1" vertex="1">
          <mxGeometry x="-550" y="2940" width="520" height="370" as="geometry" />
        </mxCell>
        <mxCell id="JsLvO-6XAozTmM2IjSxH-4" value="&lt;span style=&quot;font-size: 20px;&quot;&gt;Entidades:&lt;/span&gt;&lt;div&gt;&lt;span style=&quot;font-size: 20px;&quot;&gt;SUC,&lt;/span&gt;&lt;div&gt;&lt;span style=&quot;font-size: 20px;&quot;&gt;&amp;nbsp;Ciudad,&amp;nbsp;&lt;/span&gt;&lt;/div&gt;&lt;div&gt;&lt;span style=&quot;font-size: 20px;&quot;&gt;Gerente y Empleado,&amp;nbsp;&lt;/span&gt;&lt;/div&gt;&lt;div&gt;&lt;span style=&quot;font-size: 20px;&quot;&gt;Inmueble(debil porque se el codigo interno es de cada sucursal)&lt;/span&gt;&lt;/div&gt;&lt;/div&gt;&lt;div&gt;&lt;span style=&quot;font-size: 20px;&quot;&gt;Propietario de inmbueble&lt;/span&gt;&lt;/div&gt;&lt;div&gt;&lt;span style=&quot;font-size: 20px;&quot;&gt;Clientes&lt;/span&gt;&lt;/div&gt;&lt;div&gt;&lt;span style=&quot;font-size: 20px;&quot;&gt;Pagos&lt;/span&gt;&lt;/div&gt;" style="text;html=1;align=left;verticalAlign=middle;whiteSpace=wrap;rounded=0;" parent="1" vertex="1">
          <mxGeometry x="-65" y="-340" width="490" height="210" as="geometry" />
        </mxCell>
        <mxCell id="JsLvO-6XAozTmM2IjSxH-5" value="&lt;font style=&quot;font-size: 30px;&quot;&gt;INMOBILIARIA&lt;/font&gt;" style="rounded=1;whiteSpace=wrap;html=1;" parent="1" vertex="1">
          <mxGeometry x="1460" y="865" width="210" height="100" as="geometry" />
        </mxCell>
        <mxCell id="JsLvO-6XAozTmM2IjSxH-6" value="&lt;font style=&quot;font-size: 30px;&quot;&gt;CIUDAD&lt;/font&gt;" style="rounded=1;whiteSpace=wrap;html=1;" parent="1" vertex="1">
          <mxGeometry x="2020" y="1190" width="190" height="100" as="geometry" />
        </mxCell>
        <mxCell id="JsLvO-6XAozTmM2IjSxH-12" style="edgeStyle=orthogonalEdgeStyle;rounded=0;orthogonalLoop=1;jettySize=auto;html=1;endArrow=classic;endFill=1;" parent="1" source="JsLvO-6XAozTmM2IjSxH-7" target="JsLvO-6XAozTmM2IjSxH-6" edge="1">
          <mxGeometry relative="1" as="geometry" />
        </mxCell>
        <mxCell id="JsLvO-6XAozTmM2IjSxH-13" style="edgeStyle=orthogonalEdgeStyle;rounded=0;orthogonalLoop=1;jettySize=auto;html=1;entryX=1;entryY=0.5;entryDx=0;entryDy=0;endArrow=none;endFill=0;" parent="1" source="JsLvO-6XAozTmM2IjSxH-7" target="JsLvO-6XAozTmM2IjSxH-5" edge="1">
          <mxGeometry relative="1" as="geometry" />
        </mxCell>
        <mxCell id="JsLvO-6XAozTmM2IjSxH-7" value="&lt;font style=&quot;font-size: 30px;&quot;&gt;1&lt;/font&gt;" style="rhombus;whiteSpace=wrap;html=1;" parent="1" vertex="1">
          <mxGeometry x="1870" y="1200" width="80" height="80" as="geometry" />
        </mxCell>
        <mxCell id="JsLvO-6XAozTmM2IjSxH-14" value="&lt;font style=&quot;font-size: 20px;&quot;&gt;NUMERO_SUCURSAL*&lt;/font&gt;" style="ellipse;whiteSpace=wrap;html=1;" parent="1" vertex="1">
          <mxGeometry x="1115" y="880" width="230" height="50" as="geometry" />
        </mxCell>
        <mxCell id="JsLvO-6XAozTmM2IjSxH-16" value="&lt;font style=&quot;font-size: 30px;&quot;&gt;PERSONAL&lt;/font&gt;" style="rounded=1;whiteSpace=wrap;html=1;" parent="1" vertex="1">
          <mxGeometry x="1460" y="1240" width="210" height="100" as="geometry" />
        </mxCell>
        <mxCell id="JsLvO-6XAozTmM2IjSxH-18" style="edgeStyle=orthogonalEdgeStyle;rounded=0;orthogonalLoop=1;jettySize=auto;html=1;exitX=0.5;exitY=0;exitDx=0;exitDy=0;" parent="1" source="JsLvO-6XAozTmM2IjSxH-20" target="JsLvO-6XAozTmM2IjSxH-5" edge="1">
          <mxGeometry relative="1" as="geometry">
            <mxPoint x="1565.0000000000005" y="1034.9999999999998" as="sourcePoint" />
          </mxGeometry>
        </mxCell>
        <mxCell id="JsLvO-6XAozTmM2IjSxH-19" value="" style="endArrow=none;html=1;rounded=0;entryX=0.5;entryY=0;entryDx=0;entryDy=0;exitX=0.5;exitY=1;exitDx=0;exitDy=0;" parent="1" source="JsLvO-6XAozTmM2IjSxH-20" target="JsLvO-6XAozTmM2IjSxH-16" edge="1">
          <mxGeometry width="50" height="50" relative="1" as="geometry">
            <mxPoint x="1565.0000000000005" y="1114.9999999999998" as="sourcePoint" />
            <mxPoint x="1330" y="965" as="targetPoint" />
          </mxGeometry>
        </mxCell>
        <mxCell id="JsLvO-6XAozTmM2IjSxH-20" value="&lt;font style=&quot;font-size: 30px;&quot;&gt;2&lt;/font&gt;" style="rhombus;whiteSpace=wrap;html=1;" parent="1" vertex="1">
          <mxGeometry x="1525" y="1120" width="80" height="80" as="geometry" />
        </mxCell>
        <mxCell id="JsLvO-6XAozTmM2IjSxH-22" value="&lt;span style=&quot;font-size: 20px;&quot;&gt;PUESTO&lt;/span&gt;" style="ellipse;whiteSpace=wrap;html=1;" parent="1" vertex="1">
          <mxGeometry x="1210" y="1170" width="230" height="50" as="geometry" />
        </mxCell>
        <mxCell id="JsLvO-6XAozTmM2IjSxH-23" value="" style="endArrow=none;html=1;rounded=0;exitX=0;exitY=0;exitDx=0;exitDy=0;entryX=1;entryY=0.5;entryDx=0;entryDy=0;" parent="1" source="JsLvO-6XAozTmM2IjSxH-16" target="JsLvO-6XAozTmM2IjSxH-22" edge="1">
          <mxGeometry width="50" height="50" relative="1" as="geometry">
            <mxPoint x="1360" y="1085" as="sourcePoint" />
            <mxPoint x="1410" y="1035" as="targetPoint" />
          </mxGeometry>
        </mxCell>
        <mxCell id="JsLvO-6XAozTmM2IjSxH-25" value="&lt;span style=&quot;font-size: 20px;&quot;&gt;DNI&lt;/span&gt;" style="ellipse;whiteSpace=wrap;html=1;" parent="1" vertex="1">
          <mxGeometry x="1190" y="1265" width="230" height="50" as="geometry" />
        </mxCell>
        <mxCell id="JsLvO-6XAozTmM2IjSxH-26" value="" style="endArrow=none;html=1;rounded=0;entryX=0;entryY=0.5;entryDx=0;entryDy=0;exitX=1;exitY=0.5;exitDx=0;exitDy=0;" parent="1" source="JsLvO-6XAozTmM2IjSxH-25" target="JsLvO-6XAozTmM2IjSxH-16" edge="1">
          <mxGeometry width="50" height="50" relative="1" as="geometry">
            <mxPoint x="1310" y="1325" as="sourcePoint" />
            <mxPoint x="1360" y="1275" as="targetPoint" />
          </mxGeometry>
        </mxCell>
        <mxCell id="JsLvO-6XAozTmM2IjSxH-27" value="&lt;span style=&quot;font-size: 30px;&quot;&gt;INMUEBLE&lt;/span&gt;" style="rounded=1;whiteSpace=wrap;html=1;" parent="1" vertex="1">
          <mxGeometry x="1460" y="485" width="210" height="100" as="geometry" />
        </mxCell>
        <mxCell id="JsLvO-6XAozTmM2IjSxH-31" style="edgeStyle=orthogonalEdgeStyle;rounded=0;orthogonalLoop=1;jettySize=auto;html=1;exitX=0.5;exitY=1;exitDx=0;exitDy=0;entryX=0.5;entryY=0;entryDx=0;entryDy=0;" parent="1" source="JsLvO-6XAozTmM2IjSxH-30" target="JsLvO-6XAozTmM2IjSxH-5" edge="1">
          <mxGeometry relative="1" as="geometry" />
        </mxCell>
        <mxCell id="JsLvO-6XAozTmM2IjSxH-30" value="&lt;font style=&quot;font-size: 30px;&quot;&gt;BIT&lt;/font&gt;" style="rhombus;whiteSpace=wrap;html=1;" parent="1" vertex="1">
          <mxGeometry x="1525" y="685" width="80" height="80" as="geometry" />
        </mxCell>
        <mxCell id="JsLvO-6XAozTmM2IjSxH-32" value="" style="endArrow=none;html=1;rounded=0;entryX=0.5;entryY=0;entryDx=0;entryDy=0;exitX=0.5;exitY=1;exitDx=0;exitDy=0;" parent="1" source="JsLvO-6XAozTmM2IjSxH-28" target="JsLvO-6XAozTmM2IjSxH-30" edge="1">
          <mxGeometry width="50" height="50" relative="1" as="geometry">
            <mxPoint x="1460" y="695" as="sourcePoint" />
            <mxPoint x="1510" y="645" as="targetPoint" />
          </mxGeometry>
        </mxCell>
        <mxCell id="JsLvO-6XAozTmM2IjSxH-34" value="&lt;font style=&quot;font-size: 20px;&quot;&gt;CODIGO_INTERNO*&lt;/font&gt;" style="ellipse;whiteSpace=wrap;html=1;" parent="1" vertex="1">
          <mxGeometry x="1180" y="415" width="230" height="50" as="geometry" />
        </mxCell>
        <mxCell id="JsLvO-6XAozTmM2IjSxH-35" value="" style="endArrow=none;html=1;rounded=0;" parent="1" target="JsLvO-6XAozTmM2IjSxH-34" edge="1">
          <mxGeometry width="50" height="50" relative="1" as="geometry">
            <mxPoint x="1440" y="465" as="sourcePoint" />
            <mxPoint x="1570" y="365" as="targetPoint" />
          </mxGeometry>
        </mxCell>
        <mxCell id="JsLvO-6XAozTmM2IjSxH-37" value="&lt;font style=&quot;font-size: 20px;&quot;&gt;DIRECCION&lt;/font&gt;" style="ellipse;whiteSpace=wrap;html=1;" parent="1" vertex="1">
          <mxGeometry x="1360" y="360" width="230" height="50" as="geometry" />
        </mxCell>
        <mxCell id="JsLvO-6XAozTmM2IjSxH-38" value="" style="endArrow=none;html=1;rounded=0;exitX=0.299;exitY=0.013;exitDx=0;exitDy=0;exitPerimeter=0;entryX=0.591;entryY=1.08;entryDx=0;entryDy=0;entryPerimeter=0;" parent="1" source="JsLvO-6XAozTmM2IjSxH-28" target="JsLvO-6XAozTmM2IjSxH-37" edge="1">
          <mxGeometry width="50" height="50" relative="1" as="geometry">
            <mxPoint x="1730" y="395" as="sourcePoint" />
            <mxPoint x="1780" y="345" as="targetPoint" />
          </mxGeometry>
        </mxCell>
        <mxCell id="JsLvO-6XAozTmM2IjSxH-42" value="&lt;font style=&quot;font-size: 30px;&quot;&gt;PROPIETARIOS&lt;/font&gt;" style="rounded=1;whiteSpace=wrap;html=1;" parent="1" vertex="1">
          <mxGeometry x="1980" y="485" width="240" height="100" as="geometry" />
        </mxCell>
        <mxCell id="JsLvO-6XAozTmM2IjSxH-43" value="&lt;font style=&quot;font-size: 30px;&quot;&gt;3&lt;/font&gt;" style="rhombus;whiteSpace=wrap;html=1;" parent="1" vertex="1">
          <mxGeometry x="1830" y="495" width="80" height="80" as="geometry" />
        </mxCell>
        <mxCell id="JsLvO-6XAozTmM2IjSxH-44" value="" style="endArrow=none;html=1;rounded=0;entryX=0;entryY=0.5;entryDx=0;entryDy=0;" parent="1" target="JsLvO-6XAozTmM2IjSxH-43" edge="1">
          <mxGeometry width="50" height="50" relative="1" as="geometry">
            <mxPoint x="1722" y="535" as="sourcePoint" />
            <mxPoint x="1790" y="515" as="targetPoint" />
          </mxGeometry>
        </mxCell>
        <mxCell id="JsLvO-6XAozTmM2IjSxH-45" value="" style="endArrow=none;html=1;rounded=0;exitX=1;exitY=0.5;exitDx=0;exitDy=0;entryX=0;entryY=0.5;entryDx=0;entryDy=0;" parent="1" source="JsLvO-6XAozTmM2IjSxH-43" target="JsLvO-6XAozTmM2IjSxH-42" edge="1">
          <mxGeometry width="50" height="50" relative="1" as="geometry">
            <mxPoint x="1880" y="515" as="sourcePoint" />
            <mxPoint x="1930" y="465" as="targetPoint" />
          </mxGeometry>
        </mxCell>
        <mxCell id="JsLvO-6XAozTmM2IjSxH-47" value="&lt;span style=&quot;font-size: 20px;&quot;&gt;ALQUIELER_O_VENTA&lt;/span&gt;" style="ellipse;whiteSpace=wrap;html=1;" parent="1" vertex="1">
          <mxGeometry x="1750" y="360" width="230" height="50" as="geometry" />
        </mxCell>
        <mxCell id="JsLvO-6XAozTmM2IjSxH-48" value="" style="endArrow=none;html=1;rounded=0;entryX=0.5;entryY=0;entryDx=0;entryDy=0;exitX=0.5;exitY=1;exitDx=0;exitDy=0;" parent="1" source="JsLvO-6XAozTmM2IjSxH-47" target="JsLvO-6XAozTmM2IjSxH-43" edge="1">
          <mxGeometry width="50" height="50" relative="1" as="geometry">
            <mxPoint x="1830" y="515" as="sourcePoint" />
            <mxPoint x="1880" y="465" as="targetPoint" />
          </mxGeometry>
        </mxCell>
        <mxCell id="JsLvO-6XAozTmM2IjSxH-49" value="&lt;font style=&quot;font-size: 30px;&quot;&gt;CLIENTES&lt;/font&gt;" style="rounded=1;whiteSpace=wrap;html=1;" parent="1" vertex="1">
          <mxGeometry x="-40" y="575" width="240" height="100" as="geometry" />
        </mxCell>
        <mxCell id="JsLvO-6XAozTmM2IjSxH-51" value="&lt;font style=&quot;font-size: 30px;&quot;&gt;ALQUILER&lt;/font&gt;" style="rounded=1;whiteSpace=wrap;html=1;" parent="1" vertex="1">
          <mxGeometry x="400" y="475" width="240" height="100" as="geometry" />
        </mxCell>
        <mxCell id="JsLvO-6XAozTmM2IjSxH-52" value="&lt;font style=&quot;font-size: 30px;&quot;&gt;VENTA&lt;/font&gt;" style="rounded=1;whiteSpace=wrap;html=1;" parent="1" vertex="1">
          <mxGeometry x="400" y="690" width="240" height="100" as="geometry" />
        </mxCell>
        <mxCell id="JsLvO-6XAozTmM2IjSxH-80" style="edgeStyle=orthogonalEdgeStyle;rounded=0;orthogonalLoop=1;jettySize=auto;html=1;entryX=0.006;entryY=0.328;entryDx=0;entryDy=0;entryPerimeter=0;" parent="1" source="JsLvO-6XAozTmM2IjSxH-53" target="JsLvO-6XAozTmM2IjSxH-71" edge="1">
          <mxGeometry relative="1" as="geometry" />
        </mxCell>
        <mxCell id="JsLvO-6XAozTmM2IjSxH-53" value="&lt;font style=&quot;font-size: 30px;&quot;&gt;4&lt;/font&gt;" style="rhombus;whiteSpace=wrap;html=1;" parent="1" vertex="1">
          <mxGeometry x="750" y="485" width="80" height="80" as="geometry" />
        </mxCell>
        <mxCell id="JsLvO-6XAozTmM2IjSxH-54" value="" style="endArrow=none;html=1;rounded=0;exitX=0;exitY=0.5;exitDx=0;exitDy=0;entryX=1;entryY=0.5;entryDx=0;entryDy=0;" parent="1" source="JsLvO-6XAozTmM2IjSxH-53" target="JsLvO-6XAozTmM2IjSxH-51" edge="1">
          <mxGeometry width="50" height="50" relative="1" as="geometry">
            <mxPoint x="610" y="430" as="sourcePoint" />
            <mxPoint x="660" y="380" as="targetPoint" />
          </mxGeometry>
        </mxCell>
        <mxCell id="JsLvO-6XAozTmM2IjSxH-60" style="edgeStyle=orthogonalEdgeStyle;rounded=0;orthogonalLoop=1;jettySize=auto;html=1;entryX=1;entryY=0.5;entryDx=0;entryDy=0;" parent="1" source="JsLvO-6XAozTmM2IjSxH-57" target="JsLvO-6XAozTmM2IjSxH-52" edge="1">
          <mxGeometry relative="1" as="geometry" />
        </mxCell>
        <mxCell id="JsLvO-6XAozTmM2IjSxH-79" style="edgeStyle=orthogonalEdgeStyle;rounded=0;orthogonalLoop=1;jettySize=auto;html=1;entryX=0.006;entryY=0.608;entryDx=0;entryDy=0;entryPerimeter=0;" parent="1" source="JsLvO-6XAozTmM2IjSxH-57" target="JsLvO-6XAozTmM2IjSxH-71" edge="1">
          <mxGeometry relative="1" as="geometry" />
        </mxCell>
        <mxCell id="JsLvO-6XAozTmM2IjSxH-57" value="&lt;font style=&quot;font-size: 30px;&quot;&gt;5&lt;/font&gt;" style="rhombus;whiteSpace=wrap;html=1;" parent="1" vertex="1">
          <mxGeometry x="740" y="700" width="80" height="80" as="geometry" />
        </mxCell>
        <mxCell id="JsLvO-6XAozTmM2IjSxH-64" style="edgeStyle=orthogonalEdgeStyle;rounded=0;orthogonalLoop=1;jettySize=auto;html=1;" parent="1" source="JsLvO-6XAozTmM2IjSxH-62" target="JsLvO-6XAozTmM2IjSxH-49" edge="1">
          <mxGeometry relative="1" as="geometry" />
        </mxCell>
        <mxCell id="JsLvO-6XAozTmM2IjSxH-62" value="&lt;font style=&quot;font-size: 30px;&quot;&gt;6&lt;/font&gt;" style="rhombus;whiteSpace=wrap;html=1;" parent="1" vertex="1">
          <mxGeometry x="270" y="700" width="80" height="80" as="geometry" />
        </mxCell>
        <mxCell id="JsLvO-6XAozTmM2IjSxH-65" style="edgeStyle=orthogonalEdgeStyle;rounded=0;orthogonalLoop=1;jettySize=auto;html=1;entryX=0.5;entryY=0;entryDx=0;entryDy=0;" parent="1" source="JsLvO-6XAozTmM2IjSxH-63" target="JsLvO-6XAozTmM2IjSxH-49" edge="1">
          <mxGeometry relative="1" as="geometry" />
        </mxCell>
        <mxCell id="JsLvO-6XAozTmM2IjSxH-63" value="&lt;span style=&quot;font-size: 30px;&quot;&gt;7&lt;/span&gt;" style="rhombus;whiteSpace=wrap;html=1;" parent="1" vertex="1">
          <mxGeometry x="260" y="485" width="80" height="80" as="geometry" />
        </mxCell>
        <mxCell id="JsLvO-6XAozTmM2IjSxH-66" value="" style="endArrow=none;html=1;rounded=0;exitX=1;exitY=0.5;exitDx=0;exitDy=0;entryX=0;entryY=0.5;entryDx=0;entryDy=0;" parent="1" source="JsLvO-6XAozTmM2IjSxH-63" target="JsLvO-6XAozTmM2IjSxH-51" edge="1">
          <mxGeometry width="50" height="50" relative="1" as="geometry">
            <mxPoint x="500" y="470" as="sourcePoint" />
            <mxPoint x="550" y="420" as="targetPoint" />
          </mxGeometry>
        </mxCell>
        <mxCell id="JsLvO-6XAozTmM2IjSxH-67" value="" style="endArrow=none;html=1;rounded=0;entryX=0;entryY=0.5;entryDx=0;entryDy=0;exitX=1;exitY=0.5;exitDx=0;exitDy=0;" parent="1" source="JsLvO-6XAozTmM2IjSxH-62" target="JsLvO-6XAozTmM2IjSxH-52" edge="1">
          <mxGeometry width="50" height="50" relative="1" as="geometry">
            <mxPoint x="410" y="900" as="sourcePoint" />
            <mxPoint x="460" y="850" as="targetPoint" />
          </mxGeometry>
        </mxCell>
        <mxCell id="JsLvO-6XAozTmM2IjSxH-69" value="" style="endArrow=none;html=1;rounded=0;entryX=1;entryY=0.5;entryDx=0;entryDy=0;" parent="1" source="JsLvO-6XAozTmM2IjSxH-5" target="JsLvO-6XAozTmM2IjSxH-14" edge="1">
          <mxGeometry width="50" height="50" relative="1" as="geometry">
            <mxPoint x="880" y="1000" as="sourcePoint" />
            <mxPoint x="930" y="950" as="targetPoint" />
          </mxGeometry>
        </mxCell>
        <mxCell id="JsLvO-6XAozTmM2IjSxH-70" value="&lt;span style=&quot;font-size: 30px;&quot;&gt;PAGO&lt;/span&gt;" style="rounded=1;whiteSpace=wrap;html=1;" parent="1" vertex="1">
          <mxGeometry x="875" y="565" width="240" height="100" as="geometry" />
        </mxCell>
        <mxCell id="JsLvO-6XAozTmM2IjSxH-86" style="edgeStyle=orthogonalEdgeStyle;rounded=0;orthogonalLoop=1;jettySize=auto;html=1;" parent="1" source="JsLvO-6XAozTmM2IjSxH-77" target="JsLvO-6XAozTmM2IjSxH-70" edge="1">
          <mxGeometry relative="1" as="geometry" />
        </mxCell>
        <mxCell id="JsLvO-6XAozTmM2IjSxH-77" value="&lt;font style=&quot;font-size: 30px;&quot;&gt;8&lt;/font&gt;" style="rhombus;whiteSpace=wrap;html=1;" parent="1" vertex="1">
          <mxGeometry x="1160" y="560" width="80" height="80" as="geometry" />
        </mxCell>
        <mxCell id="JsLvO-6XAozTmM2IjSxH-82" style="edgeStyle=orthogonalEdgeStyle;rounded=0;orthogonalLoop=1;jettySize=auto;html=1;entryX=-0.001;entryY=0.421;entryDx=0;entryDy=0;entryPerimeter=0;" parent="1" source="JsLvO-6XAozTmM2IjSxH-77" target="JsLvO-6XAozTmM2IjSxH-71" edge="1">
          <mxGeometry relative="1" as="geometry" />
        </mxCell>
        <mxCell id="JsLvO-6XAozTmM2IjSxH-87" value="&lt;font style=&quot;font-size: 20px;&quot;&gt;CODIGO_ALQUILER*&lt;/font&gt;" style="ellipse;whiteSpace=wrap;html=1;" parent="1" vertex="1">
          <mxGeometry x="304" y="365" width="230" height="50" as="geometry" />
        </mxCell>
        <mxCell id="JsLvO-6XAozTmM2IjSxH-88" value="" style="endArrow=none;html=1;rounded=0;entryX=0.19;entryY=0.023;entryDx=0;entryDy=0;entryPerimeter=0;exitX=0.539;exitY=0.928;exitDx=0;exitDy=0;exitPerimeter=0;" parent="1" source="JsLvO-6XAozTmM2IjSxH-87" target="JsLvO-6XAozTmM2IjSxH-51" edge="1">
          <mxGeometry width="50" height="50" relative="1" as="geometry">
            <mxPoint x="290" y="480" as="sourcePoint" />
            <mxPoint x="340" y="430" as="targetPoint" />
          </mxGeometry>
        </mxCell>
        <mxCell id="JsLvO-6XAozTmM2IjSxH-89" value="&lt;span style=&quot;font-size: 20px;&quot;&gt;CODIGO_VENTA*&lt;/span&gt;" style="ellipse;whiteSpace=wrap;html=1;" parent="1" vertex="1">
          <mxGeometry x="270" y="850" width="230" height="50" as="geometry" />
        </mxCell>
        <mxCell id="JsLvO-6XAozTmM2IjSxH-90" value="" style="endArrow=none;html=1;rounded=0;exitX=1;exitY=0;exitDx=0;exitDy=0;entryX=0.366;entryY=1.038;entryDx=0;entryDy=0;entryPerimeter=0;" parent="1" source="JsLvO-6XAozTmM2IjSxH-89" target="JsLvO-6XAozTmM2IjSxH-52" edge="1">
          <mxGeometry width="50" height="50" relative="1" as="geometry">
            <mxPoint x="530" y="810" as="sourcePoint" />
            <mxPoint x="580" y="760" as="targetPoint" />
          </mxGeometry>
        </mxCell>
        <mxCell id="JsLvO-6XAozTmM2IjSxH-91" value="&lt;font style=&quot;font-size: 20px;&quot;&gt;CODIGO_PAGO&lt;/font&gt;" style="ellipse;whiteSpace=wrap;html=1;" parent="1" vertex="1">
          <mxGeometry x="910" y="760" width="230" height="50" as="geometry" />
        </mxCell>
        <mxCell id="JsLvO-6XAozTmM2IjSxH-92" value="" style="endArrow=none;html=1;rounded=0;entryX=0.57;entryY=1.049;entryDx=0;entryDy=0;entryPerimeter=0;exitX=0.464;exitY=-0.054;exitDx=0;exitDy=0;exitPerimeter=0;" parent="1" source="JsLvO-6XAozTmM2IjSxH-91" target="JsLvO-6XAozTmM2IjSxH-70" edge="1">
          <mxGeometry width="50" height="50" relative="1" as="geometry">
            <mxPoint x="1000" y="710" as="sourcePoint" />
            <mxPoint x="1050" y="660" as="targetPoint" />
          </mxGeometry>
        </mxCell>
        <mxCell id="JsLvO-6XAozTmM2IjSxH-149" value="" style="rounded=0;whiteSpace=wrap;html=1;" parent="1" vertex="1">
          <mxGeometry x="1280" y="1570" width="930" height="780" as="geometry" />
        </mxCell>
        <mxCell id="JsLvO-6XAozTmM2IjSxH-150" value="" style="rounded=0;whiteSpace=wrap;html=1;" parent="1" vertex="1">
          <mxGeometry x="1365" y="1735" width="305" height="580" as="geometry" />
        </mxCell>
        <mxCell id="JsLvO-6XAozTmM2IjSxH-151" value="" style="rounded=0;whiteSpace=wrap;html=1;" parent="1" vertex="1">
          <mxGeometry x="1392.5" y="1765" width="245" height="140" as="geometry" />
        </mxCell>
        <mxCell id="JsLvO-6XAozTmM2IjSxH-152" value="&lt;font style=&quot;font-size: 30px;&quot;&gt;INMOBILIARIA&lt;/font&gt;" style="rounded=1;whiteSpace=wrap;html=1;" parent="1" vertex="1">
          <mxGeometry x="1410" y="2165" width="210" height="100" as="geometry" />
        </mxCell>
        <mxCell id="JsLvO-6XAozTmM2IjSxH-153" value="&lt;font style=&quot;font-size: 30px;&quot;&gt;CIUDAD&lt;/font&gt;" style="rounded=1;whiteSpace=wrap;html=1;" parent="1" vertex="1">
          <mxGeometry x="1970" y="2490" width="190" height="100" as="geometry" />
        </mxCell>
        <mxCell id="JsLvO-6XAozTmM2IjSxH-154" style="edgeStyle=orthogonalEdgeStyle;rounded=0;orthogonalLoop=1;jettySize=auto;html=1;endArrow=classic;endFill=1;" parent="1" source="JsLvO-6XAozTmM2IjSxH-156" target="JsLvO-6XAozTmM2IjSxH-153" edge="1">
          <mxGeometry relative="1" as="geometry" />
        </mxCell>
        <mxCell id="JsLvO-6XAozTmM2IjSxH-155" style="edgeStyle=orthogonalEdgeStyle;rounded=0;orthogonalLoop=1;jettySize=auto;html=1;entryX=1;entryY=0.5;entryDx=0;entryDy=0;endArrow=none;endFill=0;" parent="1" source="JsLvO-6XAozTmM2IjSxH-156" target="JsLvO-6XAozTmM2IjSxH-152" edge="1">
          <mxGeometry relative="1" as="geometry" />
        </mxCell>
        <mxCell id="JsLvO-6XAozTmM2IjSxH-156" value="&lt;font style=&quot;font-size: 30px;&quot;&gt;1&lt;/font&gt;" style="rhombus;whiteSpace=wrap;html=1;" parent="1" vertex="1">
          <mxGeometry x="1820" y="2500" width="80" height="80" as="geometry" />
        </mxCell>
        <mxCell id="JsLvO-6XAozTmM2IjSxH-157" value="&lt;font style=&quot;font-size: 20px;&quot;&gt;NUMERO_SUCURSAL*&lt;/font&gt;" style="ellipse;whiteSpace=wrap;html=1;" parent="1" vertex="1">
          <mxGeometry x="1065" y="2180" width="230" height="50" as="geometry" />
        </mxCell>
        <mxCell id="JsLvO-6XAozTmM2IjSxH-158" value="&lt;font style=&quot;font-size: 30px;&quot;&gt;PERSONAL&lt;/font&gt;" style="rounded=1;whiteSpace=wrap;html=1;" parent="1" vertex="1">
          <mxGeometry x="890" y="2328" width="210" height="100" as="geometry" />
        </mxCell>
        <mxCell id="JsLvO-6XAozTmM2IjSxH-159" style="edgeStyle=orthogonalEdgeStyle;rounded=0;orthogonalLoop=1;jettySize=auto;html=1;exitX=1;exitY=0.5;exitDx=0;exitDy=0;" parent="1" source="JsLvO-6XAozTmM2IjSxH-161" target="JsLvO-6XAozTmM2IjSxH-152" edge="1">
          <mxGeometry relative="1" as="geometry">
            <mxPoint x="1515.0000000000005" y="2335" as="sourcePoint" />
          </mxGeometry>
        </mxCell>
        <mxCell id="JsLvO-6XAozTmM2IjSxH-241" style="edgeStyle=orthogonalEdgeStyle;rounded=0;orthogonalLoop=1;jettySize=auto;html=1;endArrow=none;endFill=0;" parent="1" source="JsLvO-6XAozTmM2IjSxH-161" target="JsLvO-6XAozTmM2IjSxH-158" edge="1">
          <mxGeometry relative="1" as="geometry" />
        </mxCell>
        <mxCell id="JsLvO-6XAozTmM2IjSxH-161" value="&lt;font style=&quot;font-size: 30px;&quot;&gt;2&lt;/font&gt;" style="rhombus;whiteSpace=wrap;html=1;" parent="1" vertex="1">
          <mxGeometry x="1190" y="2338" width="80" height="80" as="geometry" />
        </mxCell>
        <mxCell id="JsLvO-6XAozTmM2IjSxH-162" value="&lt;span style=&quot;font-size: 20px;&quot;&gt;PUESTO&lt;/span&gt;" style="ellipse;whiteSpace=wrap;html=1;" parent="1" vertex="1">
          <mxGeometry x="960" y="2540" width="230" height="50" as="geometry" />
        </mxCell>
        <mxCell id="JsLvO-6XAozTmM2IjSxH-163" value="" style="endArrow=none;html=1;rounded=0;exitX=0.947;exitY=0.971;exitDx=0;exitDy=0;exitPerimeter=0;" parent="1" source="JsLvO-6XAozTmM2IjSxH-158" target="JsLvO-6XAozTmM2IjSxH-162" edge="1">
          <mxGeometry width="50" height="50" relative="1" as="geometry">
            <mxPoint x="1310" y="2385" as="sourcePoint" />
            <mxPoint x="1360" y="2335" as="targetPoint" />
          </mxGeometry>
        </mxCell>
        <mxCell id="JsLvO-6XAozTmM2IjSxH-164" value="&lt;span style=&quot;font-size: 20px;&quot;&gt;DNI*&lt;/span&gt;" style="ellipse;whiteSpace=wrap;html=1;" parent="1" vertex="1">
          <mxGeometry x="780" y="2570" width="230" height="50" as="geometry" />
        </mxCell>
        <mxCell id="JsLvO-6XAozTmM2IjSxH-165" value="" style="endArrow=none;html=1;rounded=0;entryX=0.5;entryY=1;entryDx=0;entryDy=0;exitX=0.548;exitY=0.057;exitDx=0;exitDy=0;exitPerimeter=0;" parent="1" source="JsLvO-6XAozTmM2IjSxH-164" target="JsLvO-6XAozTmM2IjSxH-158" edge="1">
          <mxGeometry width="50" height="50" relative="1" as="geometry">
            <mxPoint x="1260" y="2625" as="sourcePoint" />
            <mxPoint x="1310" y="2575" as="targetPoint" />
          </mxGeometry>
        </mxCell>
        <mxCell id="JsLvO-6XAozTmM2IjSxH-166" value="&lt;span style=&quot;font-size: 30px;&quot;&gt;INMUEBLE&lt;/span&gt;" style="rounded=1;whiteSpace=wrap;html=1;" parent="1" vertex="1">
          <mxGeometry x="1410" y="1785" width="210" height="100" as="geometry" />
        </mxCell>
        <mxCell id="JsLvO-6XAozTmM2IjSxH-167" style="edgeStyle=orthogonalEdgeStyle;rounded=0;orthogonalLoop=1;jettySize=auto;html=1;exitX=0.5;exitY=1;exitDx=0;exitDy=0;entryX=0.5;entryY=0;entryDx=0;entryDy=0;" parent="1" source="JsLvO-6XAozTmM2IjSxH-168" target="JsLvO-6XAozTmM2IjSxH-152" edge="1">
          <mxGeometry relative="1" as="geometry" />
        </mxCell>
        <mxCell id="JsLvO-6XAozTmM2IjSxH-168" value="&lt;font style=&quot;font-size: 30px;&quot;&gt;BIT&lt;/font&gt;" style="rhombus;whiteSpace=wrap;html=1;" parent="1" vertex="1">
          <mxGeometry x="1475" y="1985" width="80" height="80" as="geometry" />
        </mxCell>
        <mxCell id="JsLvO-6XAozTmM2IjSxH-169" value="" style="endArrow=none;html=1;rounded=0;entryX=0.5;entryY=0;entryDx=0;entryDy=0;exitX=0.5;exitY=1;exitDx=0;exitDy=0;" parent="1" source="JsLvO-6XAozTmM2IjSxH-151" target="JsLvO-6XAozTmM2IjSxH-168" edge="1">
          <mxGeometry width="50" height="50" relative="1" as="geometry">
            <mxPoint x="1410" y="1995" as="sourcePoint" />
            <mxPoint x="1460" y="1945" as="targetPoint" />
          </mxGeometry>
        </mxCell>
        <mxCell id="JsLvO-6XAozTmM2IjSxH-170" value="&lt;font style=&quot;font-size: 20px;&quot;&gt;CODIGO_INTERNO*&lt;/font&gt;" style="ellipse;whiteSpace=wrap;html=1;" parent="1" vertex="1">
          <mxGeometry x="1130" y="1715" width="230" height="50" as="geometry" />
        </mxCell>
        <mxCell id="JsLvO-6XAozTmM2IjSxH-171" value="" style="endArrow=none;html=1;rounded=0;" parent="1" target="JsLvO-6XAozTmM2IjSxH-170" edge="1">
          <mxGeometry width="50" height="50" relative="1" as="geometry">
            <mxPoint x="1390" y="1765" as="sourcePoint" />
            <mxPoint x="1520" y="1665" as="targetPoint" />
          </mxGeometry>
        </mxCell>
        <mxCell id="JsLvO-6XAozTmM2IjSxH-172" value="&lt;font style=&quot;font-size: 20px;&quot;&gt;DIRECCION&lt;/font&gt;" style="ellipse;whiteSpace=wrap;html=1;" parent="1" vertex="1">
          <mxGeometry x="1310" y="1660" width="230" height="50" as="geometry" />
        </mxCell>
        <mxCell id="JsLvO-6XAozTmM2IjSxH-173" value="" style="endArrow=none;html=1;rounded=0;exitX=0.299;exitY=0.013;exitDx=0;exitDy=0;exitPerimeter=0;entryX=0.591;entryY=1.08;entryDx=0;entryDy=0;entryPerimeter=0;" parent="1" source="JsLvO-6XAozTmM2IjSxH-151" target="JsLvO-6XAozTmM2IjSxH-172" edge="1">
          <mxGeometry width="50" height="50" relative="1" as="geometry">
            <mxPoint x="1680" y="1695" as="sourcePoint" />
            <mxPoint x="1730" y="1645" as="targetPoint" />
          </mxGeometry>
        </mxCell>
        <mxCell id="JsLvO-6XAozTmM2IjSxH-174" value="&lt;font style=&quot;font-size: 30px;&quot;&gt;PROPIETARIOS&lt;/font&gt;" style="rounded=1;whiteSpace=wrap;html=1;" parent="1" vertex="1">
          <mxGeometry x="1930" y="1785" width="240" height="100" as="geometry" />
        </mxCell>
        <mxCell id="JsLvO-6XAozTmM2IjSxH-175" value="&lt;font style=&quot;font-size: 30px;&quot;&gt;3&lt;/font&gt;" style="rhombus;whiteSpace=wrap;html=1;" parent="1" vertex="1">
          <mxGeometry x="1780" y="1795" width="80" height="80" as="geometry" />
        </mxCell>
        <mxCell id="JsLvO-6XAozTmM2IjSxH-176" value="" style="endArrow=none;html=1;rounded=0;entryX=0;entryY=0.5;entryDx=0;entryDy=0;" parent="1" target="JsLvO-6XAozTmM2IjSxH-175" edge="1">
          <mxGeometry width="50" height="50" relative="1" as="geometry">
            <mxPoint x="1672" y="1835" as="sourcePoint" />
            <mxPoint x="1740" y="1815" as="targetPoint" />
          </mxGeometry>
        </mxCell>
        <mxCell id="JsLvO-6XAozTmM2IjSxH-177" value="" style="endArrow=none;html=1;rounded=0;exitX=1;exitY=0.5;exitDx=0;exitDy=0;entryX=0;entryY=0.5;entryDx=0;entryDy=0;" parent="1" source="JsLvO-6XAozTmM2IjSxH-175" target="JsLvO-6XAozTmM2IjSxH-174" edge="1">
          <mxGeometry width="50" height="50" relative="1" as="geometry">
            <mxPoint x="1830" y="1815" as="sourcePoint" />
            <mxPoint x="1880" y="1765" as="targetPoint" />
          </mxGeometry>
        </mxCell>
        <mxCell id="JsLvO-6XAozTmM2IjSxH-178" value="&lt;span style=&quot;font-size: 20px;&quot;&gt;ALQUIELER_O_VENTA&lt;/span&gt;" style="ellipse;whiteSpace=wrap;html=1;" parent="1" vertex="1">
          <mxGeometry x="1700" y="1660" width="230" height="50" as="geometry" />
        </mxCell>
        <mxCell id="JsLvO-6XAozTmM2IjSxH-179" value="" style="endArrow=none;html=1;rounded=0;entryX=0.5;entryY=0;entryDx=0;entryDy=0;exitX=0.5;exitY=1;exitDx=0;exitDy=0;" parent="1" source="JsLvO-6XAozTmM2IjSxH-178" target="JsLvO-6XAozTmM2IjSxH-175" edge="1">
          <mxGeometry width="50" height="50" relative="1" as="geometry">
            <mxPoint x="1780" y="1815" as="sourcePoint" />
            <mxPoint x="1830" y="1765" as="targetPoint" />
          </mxGeometry>
        </mxCell>
        <mxCell id="JsLvO-6XAozTmM2IjSxH-180" value="&lt;font style=&quot;font-size: 30px;&quot;&gt;CLIENTES&lt;/font&gt;" style="rounded=1;whiteSpace=wrap;html=1;" parent="1" vertex="1">
          <mxGeometry x="184" y="1875" width="240" height="100" as="geometry" />
        </mxCell>
        <mxCell id="JsLvO-6XAozTmM2IjSxH-195" value="" style="endArrow=none;html=1;rounded=0;entryX=1;entryY=0.5;entryDx=0;entryDy=0;" parent="1" source="JsLvO-6XAozTmM2IjSxH-152" target="JsLvO-6XAozTmM2IjSxH-157" edge="1">
          <mxGeometry width="50" height="50" relative="1" as="geometry">
            <mxPoint x="830" y="2300" as="sourcePoint" />
            <mxPoint x="880" y="2250" as="targetPoint" />
          </mxGeometry>
        </mxCell>
        <mxCell id="JsLvO-6XAozTmM2IjSxH-196" value="&lt;span style=&quot;font-size: 30px;&quot;&gt;PAGO&lt;/span&gt;" style="rounded=1;whiteSpace=wrap;html=1;" parent="1" vertex="1">
          <mxGeometry x="450" y="2200" width="240" height="100" as="geometry" />
        </mxCell>
        <mxCell id="JsLvO-6XAozTmM2IjSxH-204" value="&lt;font style=&quot;font-size: 20px;&quot;&gt;CODIGO_PAGO*&lt;/font&gt;" style="ellipse;whiteSpace=wrap;html=1;" parent="1" vertex="1">
          <mxGeometry x="440" y="2350" width="230" height="50" as="geometry" />
        </mxCell>
        <mxCell id="JsLvO-6XAozTmM2IjSxH-205" value="" style="endArrow=none;html=1;rounded=0;entryX=0.5;entryY=1;entryDx=0;entryDy=0;exitX=0.464;exitY=-0.054;exitDx=0;exitDy=0;exitPerimeter=0;" parent="1" source="JsLvO-6XAozTmM2IjSxH-204" target="JsLvO-6XAozTmM2IjSxH-196" edge="1">
          <mxGeometry width="50" height="50" relative="1" as="geometry">
            <mxPoint x="614" y="2345" as="sourcePoint" />
            <mxPoint x="664" y="2295" as="targetPoint" />
          </mxGeometry>
        </mxCell>
        <mxCell id="JsLvO-6XAozTmM2IjSxH-207" value="&lt;span style=&quot;font-size: 30px;&quot;&gt;CONTRATO&lt;/span&gt;" style="rounded=1;whiteSpace=wrap;html=1;" parent="1" vertex="1">
          <mxGeometry x="604" y="1875" width="240" height="100" as="geometry" />
        </mxCell>
        <mxCell id="JsLvO-6XAozTmM2IjSxH-209" value="&lt;font style=&quot;font-size: 20px;&quot;&gt;CODIGO_CONTRATO*&lt;/font&gt;" style="ellipse;whiteSpace=wrap;html=1;" parent="1" vertex="1">
          <mxGeometry x="405" y="1754" width="230" height="50" as="geometry" />
        </mxCell>
        <mxCell id="JsLvO-6XAozTmM2IjSxH-210" value="" style="endArrow=none;html=1;rounded=0;exitX=0.438;exitY=1.08;exitDx=0;exitDy=0;exitPerimeter=0;" parent="1" source="JsLvO-6XAozTmM2IjSxH-209" target="JsLvO-6XAozTmM2IjSxH-207" edge="1">
          <mxGeometry width="50" height="50" relative="1" as="geometry">
            <mxPoint x="514" y="1730" as="sourcePoint" />
            <mxPoint x="564" y="1680" as="targetPoint" />
          </mxGeometry>
        </mxCell>
        <mxCell id="JsLvO-6XAozTmM2IjSxH-211" value="&lt;font style=&quot;font-size: 20px;&quot;&gt;TIPO_CONTRATO&lt;/font&gt;" style="ellipse;whiteSpace=wrap;html=1;" parent="1" vertex="1">
          <mxGeometry x="850" y="1765" width="230" height="50" as="geometry" />
        </mxCell>
        <mxCell id="JsLvO-6XAozTmM2IjSxH-212" value="" style="endArrow=none;html=1;rounded=0;entryX=0.304;entryY=0.9;entryDx=0;entryDy=0;entryPerimeter=0;exitX=0.642;exitY=0.023;exitDx=0;exitDy=0;exitPerimeter=0;" parent="1" source="JsLvO-6XAozTmM2IjSxH-207" target="JsLvO-6XAozTmM2IjSxH-211" edge="1">
          <mxGeometry width="50" height="50" relative="1" as="geometry">
            <mxPoint x="794" y="1870" as="sourcePoint" />
            <mxPoint x="844" y="1820" as="targetPoint" />
          </mxGeometry>
        </mxCell>
        <mxCell id="JsLvO-6XAozTmM2IjSxH-214" style="edgeStyle=orthogonalEdgeStyle;rounded=0;orthogonalLoop=1;jettySize=auto;html=1;" parent="1" source="JsLvO-6XAozTmM2IjSxH-213" target="JsLvO-6XAozTmM2IjSxH-180" edge="1">
          <mxGeometry relative="1" as="geometry" />
        </mxCell>
        <mxCell id="JsLvO-6XAozTmM2IjSxH-213" value="&lt;font style=&quot;font-size: 30px;&quot;&gt;4&lt;/font&gt;" style="rhombus;whiteSpace=wrap;html=1;" parent="1" vertex="1">
          <mxGeometry x="474" y="1885" width="80" height="80" as="geometry" />
        </mxCell>
        <mxCell id="JsLvO-6XAozTmM2IjSxH-215" value="" style="endArrow=none;html=1;rounded=0;entryX=0;entryY=0.5;entryDx=0;entryDy=0;exitX=1;exitY=0.5;exitDx=0;exitDy=0;" parent="1" source="JsLvO-6XAozTmM2IjSxH-213" target="JsLvO-6XAozTmM2IjSxH-207" edge="1">
          <mxGeometry width="50" height="50" relative="1" as="geometry">
            <mxPoint x="364" y="2040" as="sourcePoint" />
            <mxPoint x="414" y="1990" as="targetPoint" />
          </mxGeometry>
        </mxCell>
        <mxCell id="JsLvO-6XAozTmM2IjSxH-223" style="edgeStyle=orthogonalEdgeStyle;rounded=0;orthogonalLoop=1;jettySize=auto;html=1;entryX=0;entryY=0.452;entryDx=0;entryDy=0;entryPerimeter=0;" parent="1" source="JsLvO-6XAozTmM2IjSxH-216" target="JsLvO-6XAozTmM2IjSxH-149" edge="1">
          <mxGeometry relative="1" as="geometry">
            <mxPoint x="1270" y="1925" as="targetPoint" />
          </mxGeometry>
        </mxCell>
        <mxCell id="JsLvO-6XAozTmM2IjSxH-216" value="&lt;font style=&quot;font-size: 30px;&quot;&gt;5&lt;/font&gt;" style="rhombus;whiteSpace=wrap;html=1;" parent="1" vertex="1">
          <mxGeometry x="924" y="1885" width="80" height="80" as="geometry" />
        </mxCell>
        <mxCell id="JsLvO-6XAozTmM2IjSxH-221" style="edgeStyle=orthogonalEdgeStyle;rounded=0;orthogonalLoop=1;jettySize=auto;html=1;entryX=0.5;entryY=1;entryDx=0;entryDy=0;" parent="1" source="JsLvO-6XAozTmM2IjSxH-220" target="JsLvO-6XAozTmM2IjSxH-207" edge="1">
          <mxGeometry relative="1" as="geometry" />
        </mxCell>
        <mxCell id="JsLvO-6XAozTmM2IjSxH-220" value="&lt;font style=&quot;font-size: 30px;&quot;&gt;6&lt;/font&gt;" style="rhombus;whiteSpace=wrap;html=1;" parent="1" vertex="1">
          <mxGeometry x="540" y="2065" width="80" height="80" as="geometry" />
        </mxCell>
        <mxCell id="JsLvO-6XAozTmM2IjSxH-222" value="" style="endArrow=none;html=1;rounded=0;entryX=0.5;entryY=1;entryDx=0;entryDy=0;" parent="1" source="JsLvO-6XAozTmM2IjSxH-196" target="JsLvO-6XAozTmM2IjSxH-220" edge="1">
          <mxGeometry width="50" height="50" relative="1" as="geometry">
            <mxPoint x="520" y="2090" as="sourcePoint" />
            <mxPoint x="570" y="2040" as="targetPoint" />
          </mxGeometry>
        </mxCell>
        <mxCell id="JsLvO-6XAozTmM2IjSxH-224" value="" style="endArrow=none;html=1;rounded=0;entryX=0;entryY=0.5;entryDx=0;entryDy=0;exitX=1;exitY=0.5;exitDx=0;exitDy=0;" parent="1" source="JsLvO-6XAozTmM2IjSxH-207" target="JsLvO-6XAozTmM2IjSxH-216" edge="1">
          <mxGeometry width="50" height="50" relative="1" as="geometry">
            <mxPoint x="840" y="2090" as="sourcePoint" />
            <mxPoint x="890" y="2040" as="targetPoint" />
          </mxGeometry>
        </mxCell>
        <mxCell id="JsLvO-6XAozTmM2IjSxH-225" value="&lt;font style=&quot;font-size: 20px;&quot;&gt;MONTO&lt;/font&gt;" style="ellipse;whiteSpace=wrap;html=1;" parent="1" vertex="1">
          <mxGeometry x="250" y="2380" width="230" height="50" as="geometry" />
        </mxCell>
        <mxCell id="JsLvO-6XAozTmM2IjSxH-226" value="" style="endArrow=none;html=1;rounded=0;entryX=0.105;entryY=1.02;entryDx=0;entryDy=0;exitX=0.702;exitY=-0.042;exitDx=0;exitDy=0;exitPerimeter=0;entryPerimeter=0;" parent="1" source="JsLvO-6XAozTmM2IjSxH-225" target="JsLvO-6XAozTmM2IjSxH-196" edge="1">
          <mxGeometry width="50" height="50" relative="1" as="geometry">
            <mxPoint x="737" y="2407" as="sourcePoint" />
            <mxPoint x="734" y="2310" as="targetPoint" />
          </mxGeometry>
        </mxCell>
        <mxCell id="JsLvO-6XAozTmM2IjSxH-227" value="&lt;font style=&quot;font-size: 20px;&quot;&gt;FECHA&lt;/font&gt;" style="ellipse;whiteSpace=wrap;html=1;" parent="1" vertex="1">
          <mxGeometry x="460" y="2460" width="230" height="50" as="geometry" />
        </mxCell>
        <mxCell id="JsLvO-6XAozTmM2IjSxH-228" value="" style="endArrow=none;html=1;rounded=0;entryX=0.967;entryY=0.973;entryDx=0;entryDy=0;exitX=0.958;exitY=0.314;exitDx=0;exitDy=0;exitPerimeter=0;entryPerimeter=0;" parent="1" source="JsLvO-6XAozTmM2IjSxH-227" target="JsLvO-6XAozTmM2IjSxH-196" edge="1">
          <mxGeometry width="50" height="50" relative="1" as="geometry">
            <mxPoint x="821" y="2335" as="sourcePoint" />
            <mxPoint x="931" y="2290" as="targetPoint" />
          </mxGeometry>
        </mxCell>
        <mxCell id="JsLvO-6XAozTmM2IjSxH-229" value="&lt;span style=&quot;font-size: 20px;&quot;&gt;CODIGO_CIUDAD*&lt;/span&gt;" style="ellipse;whiteSpace=wrap;html=1;" parent="1" vertex="1">
          <mxGeometry x="2110" y="2380" width="230" height="50" as="geometry" />
        </mxCell>
        <mxCell id="JsLvO-6XAozTmM2IjSxH-230" value="" style="endArrow=none;html=1;rounded=0;entryX=0;entryY=1;entryDx=0;entryDy=0;exitX=0.75;exitY=0;exitDx=0;exitDy=0;" parent="1" source="JsLvO-6XAozTmM2IjSxH-153" target="JsLvO-6XAozTmM2IjSxH-229" edge="1">
          <mxGeometry width="50" height="50" relative="1" as="geometry">
            <mxPoint x="2000" y="2470" as="sourcePoint" />
            <mxPoint x="2050" y="2420" as="targetPoint" />
          </mxGeometry>
        </mxCell>
        <mxCell id="JsLvO-6XAozTmM2IjSxH-231" value="&lt;span style=&quot;font-size: 20px;&quot;&gt;DNI*&lt;/span&gt;" style="ellipse;whiteSpace=wrap;html=1;" parent="1" vertex="1">
          <mxGeometry x="1930" y="1665" width="230" height="50" as="geometry" />
        </mxCell>
        <mxCell id="JsLvO-6XAozTmM2IjSxH-232" value="" style="endArrow=none;html=1;rounded=0;entryX=0.5;entryY=1;entryDx=0;entryDy=0;exitX=0.5;exitY=0;exitDx=0;exitDy=0;" parent="1" source="JsLvO-6XAozTmM2IjSxH-174" target="JsLvO-6XAozTmM2IjSxH-231" edge="1">
          <mxGeometry width="50" height="50" relative="1" as="geometry">
            <mxPoint x="1890" y="1850" as="sourcePoint" />
            <mxPoint x="1940" y="1800" as="targetPoint" />
          </mxGeometry>
        </mxCell>
        <mxCell id="JsLvO-6XAozTmM2IjSxH-233" value="&lt;span style=&quot;font-size: 20px;&quot;&gt;DNI*&lt;/span&gt;" style="ellipse;whiteSpace=wrap;html=1;" parent="1" vertex="1">
          <mxGeometry x="200" y="1695" width="230" height="50" as="geometry" />
        </mxCell>
        <mxCell id="JsLvO-6XAozTmM2IjSxH-234" value="" style="endArrow=none;html=1;rounded=0;entryX=0.5;entryY=1;entryDx=0;entryDy=0;exitX=0.5;exitY=0;exitDx=0;exitDy=0;" parent="1" source="JsLvO-6XAozTmM2IjSxH-180" target="JsLvO-6XAozTmM2IjSxH-233" edge="1">
          <mxGeometry width="50" height="50" relative="1" as="geometry">
            <mxPoint x="320" y="1890" as="sourcePoint" />
            <mxPoint x="370" y="1840" as="targetPoint" />
          </mxGeometry>
        </mxCell>
        <mxCell id="JsLvO-6XAozTmM2IjSxH-238" style="edgeStyle=orthogonalEdgeStyle;rounded=0;orthogonalLoop=1;jettySize=auto;html=1;" parent="1" source="JsLvO-6XAozTmM2IjSxH-236" target="JsLvO-6XAozTmM2IjSxH-158" edge="1">
          <mxGeometry relative="1" as="geometry" />
        </mxCell>
        <mxCell id="JsLvO-6XAozTmM2IjSxH-236" value="&lt;font style=&quot;font-size: 30px;&quot;&gt;7&lt;/font&gt;" style="rhombus;whiteSpace=wrap;html=1;" parent="1" vertex="1">
          <mxGeometry x="870" y="2120" width="80" height="80" as="geometry" />
        </mxCell>
        <mxCell id="JsLvO-6XAozTmM2IjSxH-240" style="edgeStyle=orthogonalEdgeStyle;rounded=0;orthogonalLoop=1;jettySize=auto;html=1;entryX=0.675;entryY=1.036;entryDx=0;entryDy=0;entryPerimeter=0;endArrow=none;endFill=0;" parent="1" source="JsLvO-6XAozTmM2IjSxH-236" target="JsLvO-6XAozTmM2IjSxH-207" edge="1">
          <mxGeometry relative="1" as="geometry" />
        </mxCell>
        <mxCell id="JsLvO-6XAozTmM2IjSxH-245" value="" style="rounded=0;whiteSpace=wrap;html=1;" parent="1" vertex="1">
          <mxGeometry x="1286" y="3030" width="930" height="780" as="geometry" />
        </mxCell>
        <mxCell id="JsLvO-6XAozTmM2IjSxH-246" value="" style="rounded=0;whiteSpace=wrap;html=1;" parent="1" vertex="1">
          <mxGeometry x="1371" y="3195" width="305" height="580" as="geometry" />
        </mxCell>
        <mxCell id="JsLvO-6XAozTmM2IjSxH-247" value="" style="rounded=0;whiteSpace=wrap;html=1;" parent="1" vertex="1">
          <mxGeometry x="1398.5" y="3225" width="245" height="140" as="geometry" />
        </mxCell>
        <mxCell id="JsLvO-6XAozTmM2IjSxH-248" value="&lt;font style=&quot;font-size: 30px;&quot;&gt;INMOBILIARIA&lt;/font&gt;" style="rounded=1;whiteSpace=wrap;html=1;" parent="1" vertex="1">
          <mxGeometry x="1416" y="3625" width="210" height="100" as="geometry" />
        </mxCell>
        <mxCell id="JsLvO-6XAozTmM2IjSxH-249" value="&lt;font style=&quot;font-size: 30px;&quot;&gt;CIUDAD&lt;/font&gt;" style="rounded=1;whiteSpace=wrap;html=1;" parent="1" vertex="1">
          <mxGeometry x="1976" y="3950" width="190" height="100" as="geometry" />
        </mxCell>
        <mxCell id="JsLvO-6XAozTmM2IjSxH-250" style="edgeStyle=orthogonalEdgeStyle;rounded=0;orthogonalLoop=1;jettySize=auto;html=1;endArrow=classic;endFill=1;" parent="1" source="JsLvO-6XAozTmM2IjSxH-252" target="JsLvO-6XAozTmM2IjSxH-249" edge="1">
          <mxGeometry relative="1" as="geometry" />
        </mxCell>
        <mxCell id="JsLvO-6XAozTmM2IjSxH-251" style="edgeStyle=orthogonalEdgeStyle;rounded=0;orthogonalLoop=1;jettySize=auto;html=1;entryX=1;entryY=0.5;entryDx=0;entryDy=0;endArrow=none;endFill=0;" parent="1" source="JsLvO-6XAozTmM2IjSxH-252" target="JsLvO-6XAozTmM2IjSxH-248" edge="1">
          <mxGeometry relative="1" as="geometry" />
        </mxCell>
        <mxCell id="JsLvO-6XAozTmM2IjSxH-252" value="&lt;font style=&quot;font-size: 30px;&quot;&gt;1&lt;/font&gt;" style="rhombus;whiteSpace=wrap;html=1;" parent="1" vertex="1">
          <mxGeometry x="1826" y="3960" width="80" height="80" as="geometry" />
        </mxCell>
        <mxCell id="JsLvO-6XAozTmM2IjSxH-253" value="&lt;font style=&quot;font-size: 20px;&quot;&gt;NUMERO_SUCURSAL*&lt;/font&gt;" style="ellipse;whiteSpace=wrap;html=1;" parent="1" vertex="1">
          <mxGeometry x="1071" y="3640" width="230" height="50" as="geometry" />
        </mxCell>
        <mxCell id="JsLvO-6XAozTmM2IjSxH-254" value="&lt;font style=&quot;font-size: 30px;&quot;&gt;PERSONAL&lt;/font&gt;" style="rounded=1;whiteSpace=wrap;html=1;" parent="1" vertex="1">
          <mxGeometry x="811" y="3775" width="210" height="100" as="geometry" />
        </mxCell>
        <mxCell id="JsLvO-6XAozTmM2IjSxH-255" style="edgeStyle=orthogonalEdgeStyle;rounded=0;orthogonalLoop=1;jettySize=auto;html=1;exitX=1;exitY=0.5;exitDx=0;exitDy=0;" parent="1" source="JsLvO-6XAozTmM2IjSxH-257" target="JsLvO-6XAozTmM2IjSxH-248" edge="1">
          <mxGeometry relative="1" as="geometry">
            <mxPoint x="1521.0000000000005" y="3795" as="sourcePoint" />
          </mxGeometry>
        </mxCell>
        <mxCell id="JsLvO-6XAozTmM2IjSxH-256" style="edgeStyle=orthogonalEdgeStyle;rounded=0;orthogonalLoop=1;jettySize=auto;html=1;endArrow=none;endFill=0;" parent="1" source="JsLvO-6XAozTmM2IjSxH-257" target="JsLvO-6XAozTmM2IjSxH-254" edge="1">
          <mxGeometry relative="1" as="geometry" />
        </mxCell>
        <mxCell id="JsLvO-6XAozTmM2IjSxH-257" value="&lt;font style=&quot;font-size: 30px;&quot;&gt;2&lt;/font&gt;" style="rhombus;whiteSpace=wrap;html=1;" parent="1" vertex="1">
          <mxGeometry x="1190" y="3785" width="80" height="80" as="geometry" />
        </mxCell>
        <mxCell id="JsLvO-6XAozTmM2IjSxH-258" value="&lt;span style=&quot;font-size: 20px;&quot;&gt;PUESTO&lt;/span&gt;" style="ellipse;whiteSpace=wrap;html=1;" parent="1" vertex="1">
          <mxGeometry x="1000" y="3890" width="230" height="50" as="geometry" />
        </mxCell>
        <mxCell id="JsLvO-6XAozTmM2IjSxH-259" value="" style="endArrow=none;html=1;rounded=0;exitX=0.947;exitY=0.971;exitDx=0;exitDy=0;exitPerimeter=0;" parent="1" source="JsLvO-6XAozTmM2IjSxH-254" target="JsLvO-6XAozTmM2IjSxH-258" edge="1">
          <mxGeometry width="50" height="50" relative="1" as="geometry">
            <mxPoint x="1316" y="3845" as="sourcePoint" />
            <mxPoint x="1366" y="3795" as="targetPoint" />
          </mxGeometry>
        </mxCell>
        <mxCell id="JsLvO-6XAozTmM2IjSxH-260" value="&lt;span style=&quot;font-size: 20px;&quot;&gt;DNI*&lt;/span&gt;" style="ellipse;whiteSpace=wrap;html=1;" parent="1" vertex="1">
          <mxGeometry x="780" y="3930" width="230" height="50" as="geometry" />
        </mxCell>
        <mxCell id="JsLvO-6XAozTmM2IjSxH-261" value="" style="endArrow=none;html=1;rounded=0;entryX=0.5;entryY=1;entryDx=0;entryDy=0;exitX=0.548;exitY=0.057;exitDx=0;exitDy=0;exitPerimeter=0;" parent="1" source="JsLvO-6XAozTmM2IjSxH-260" target="JsLvO-6XAozTmM2IjSxH-254" edge="1">
          <mxGeometry width="50" height="50" relative="1" as="geometry">
            <mxPoint x="1266" y="4085" as="sourcePoint" />
            <mxPoint x="1316" y="4035" as="targetPoint" />
          </mxGeometry>
        </mxCell>
        <mxCell id="JsLvO-6XAozTmM2IjSxH-262" value="&lt;span style=&quot;font-size: 30px;&quot;&gt;INMUEBLE&lt;/span&gt;" style="rounded=1;whiteSpace=wrap;html=1;" parent="1" vertex="1">
          <mxGeometry x="1416" y="3245" width="210" height="100" as="geometry" />
        </mxCell>
        <mxCell id="JsLvO-6XAozTmM2IjSxH-263" style="edgeStyle=orthogonalEdgeStyle;rounded=0;orthogonalLoop=1;jettySize=auto;html=1;exitX=0.5;exitY=1;exitDx=0;exitDy=0;entryX=0.5;entryY=0;entryDx=0;entryDy=0;" parent="1" source="JsLvO-6XAozTmM2IjSxH-264" target="JsLvO-6XAozTmM2IjSxH-248" edge="1">
          <mxGeometry relative="1" as="geometry" />
        </mxCell>
        <mxCell id="JsLvO-6XAozTmM2IjSxH-264" value="&lt;font style=&quot;font-size: 30px;&quot;&gt;BIT&lt;/font&gt;" style="rhombus;whiteSpace=wrap;html=1;" parent="1" vertex="1">
          <mxGeometry x="1481" y="3445" width="80" height="80" as="geometry" />
        </mxCell>
        <mxCell id="JsLvO-6XAozTmM2IjSxH-265" value="" style="endArrow=none;html=1;rounded=0;entryX=0.5;entryY=0;entryDx=0;entryDy=0;exitX=0.5;exitY=1;exitDx=0;exitDy=0;" parent="1" source="JsLvO-6XAozTmM2IjSxH-247" target="JsLvO-6XAozTmM2IjSxH-264" edge="1">
          <mxGeometry width="50" height="50" relative="1" as="geometry">
            <mxPoint x="1416" y="3455" as="sourcePoint" />
            <mxPoint x="1466" y="3405" as="targetPoint" />
          </mxGeometry>
        </mxCell>
        <mxCell id="JsLvO-6XAozTmM2IjSxH-266" value="&lt;font style=&quot;font-size: 20px;&quot;&gt;CODIGO_INTERNO*&lt;/font&gt;" style="ellipse;whiteSpace=wrap;html=1;" parent="1" vertex="1">
          <mxGeometry x="1136" y="3175" width="230" height="50" as="geometry" />
        </mxCell>
        <mxCell id="JsLvO-6XAozTmM2IjSxH-267" value="" style="endArrow=none;html=1;rounded=0;" parent="1" target="JsLvO-6XAozTmM2IjSxH-266" edge="1">
          <mxGeometry width="50" height="50" relative="1" as="geometry">
            <mxPoint x="1396" y="3225" as="sourcePoint" />
            <mxPoint x="1526" y="3125" as="targetPoint" />
          </mxGeometry>
        </mxCell>
        <mxCell id="JsLvO-6XAozTmM2IjSxH-268" value="&lt;font style=&quot;font-size: 20px;&quot;&gt;DIRECCION&lt;/font&gt;" style="ellipse;whiteSpace=wrap;html=1;" parent="1" vertex="1">
          <mxGeometry x="1316" y="3120" width="230" height="50" as="geometry" />
        </mxCell>
        <mxCell id="JsLvO-6XAozTmM2IjSxH-269" value="" style="endArrow=none;html=1;rounded=0;exitX=0.299;exitY=0.013;exitDx=0;exitDy=0;exitPerimeter=0;entryX=0.591;entryY=1.08;entryDx=0;entryDy=0;entryPerimeter=0;" parent="1" source="JsLvO-6XAozTmM2IjSxH-247" target="JsLvO-6XAozTmM2IjSxH-268" edge="1">
          <mxGeometry width="50" height="50" relative="1" as="geometry">
            <mxPoint x="1686" y="3155" as="sourcePoint" />
            <mxPoint x="1736" y="3105" as="targetPoint" />
          </mxGeometry>
        </mxCell>
        <mxCell id="JsLvO-6XAozTmM2IjSxH-270" value="&lt;font style=&quot;font-size: 30px;&quot;&gt;PROPIETARIOS&lt;/font&gt;" style="rounded=1;whiteSpace=wrap;html=1;" parent="1" vertex="1">
          <mxGeometry x="1936" y="3245" width="240" height="100" as="geometry" />
        </mxCell>
        <mxCell id="JsLvO-6XAozTmM2IjSxH-271" value="&lt;font style=&quot;font-size: 30px;&quot;&gt;3&lt;/font&gt;" style="rhombus;whiteSpace=wrap;html=1;" parent="1" vertex="1">
          <mxGeometry x="1786" y="3255" width="80" height="80" as="geometry" />
        </mxCell>
        <mxCell id="JsLvO-6XAozTmM2IjSxH-272" value="" style="endArrow=none;html=1;rounded=0;entryX=0;entryY=0.5;entryDx=0;entryDy=0;" parent="1" target="JsLvO-6XAozTmM2IjSxH-271" edge="1">
          <mxGeometry width="50" height="50" relative="1" as="geometry">
            <mxPoint x="1678" y="3295" as="sourcePoint" />
            <mxPoint x="1746" y="3275" as="targetPoint" />
          </mxGeometry>
        </mxCell>
        <mxCell id="JsLvO-6XAozTmM2IjSxH-273" value="" style="endArrow=none;html=1;rounded=0;exitX=1;exitY=0.5;exitDx=0;exitDy=0;entryX=0;entryY=0.5;entryDx=0;entryDy=0;" parent="1" source="JsLvO-6XAozTmM2IjSxH-271" target="JsLvO-6XAozTmM2IjSxH-270" edge="1">
          <mxGeometry width="50" height="50" relative="1" as="geometry">
            <mxPoint x="1836" y="3275" as="sourcePoint" />
            <mxPoint x="1886" y="3225" as="targetPoint" />
          </mxGeometry>
        </mxCell>
        <mxCell id="JsLvO-6XAozTmM2IjSxH-276" value="&lt;font style=&quot;font-size: 30px;&quot;&gt;CLIENTES&lt;/font&gt;" style="rounded=1;whiteSpace=wrap;html=1;" parent="1" vertex="1">
          <mxGeometry x="190" y="3335" width="240" height="100" as="geometry" />
        </mxCell>
        <mxCell id="JsLvO-6XAozTmM2IjSxH-277" value="" style="endArrow=none;html=1;rounded=0;entryX=1;entryY=0.5;entryDx=0;entryDy=0;" parent="1" source="JsLvO-6XAozTmM2IjSxH-248" target="JsLvO-6XAozTmM2IjSxH-253" edge="1">
          <mxGeometry width="50" height="50" relative="1" as="geometry">
            <mxPoint x="836" y="3760" as="sourcePoint" />
            <mxPoint x="886" y="3710" as="targetPoint" />
          </mxGeometry>
        </mxCell>
        <mxCell id="JsLvO-6XAozTmM2IjSxH-278" value="&lt;span style=&quot;font-size: 30px;&quot;&gt;PAGO&lt;/span&gt;" style="rounded=1;whiteSpace=wrap;html=1;" parent="1" vertex="1">
          <mxGeometry x="456" y="3660" width="240" height="100" as="geometry" />
        </mxCell>
        <mxCell id="JsLvO-6XAozTmM2IjSxH-279" value="&lt;font style=&quot;font-size: 20px;&quot;&gt;CODIGO_PAGO*&lt;/font&gt;" style="ellipse;whiteSpace=wrap;html=1;" parent="1" vertex="1">
          <mxGeometry x="446" y="3810" width="230" height="50" as="geometry" />
        </mxCell>
        <mxCell id="JsLvO-6XAozTmM2IjSxH-280" value="" style="endArrow=none;html=1;rounded=0;entryX=0.5;entryY=1;entryDx=0;entryDy=0;exitX=0.464;exitY=-0.054;exitDx=0;exitDy=0;exitPerimeter=0;" parent="1" source="JsLvO-6XAozTmM2IjSxH-279" target="JsLvO-6XAozTmM2IjSxH-278" edge="1">
          <mxGeometry width="50" height="50" relative="1" as="geometry">
            <mxPoint x="620" y="3805" as="sourcePoint" />
            <mxPoint x="670" y="3755" as="targetPoint" />
          </mxGeometry>
        </mxCell>
        <mxCell id="JsLvO-6XAozTmM2IjSxH-311" style="edgeStyle=orthogonalEdgeStyle;rounded=0;orthogonalLoop=1;jettySize=auto;html=1;entryX=0;entryY=0.5;entryDx=0;entryDy=0;endArrow=none;endFill=0;" parent="1" source="JsLvO-6XAozTmM2IjSxH-281" target="JsLvO-6XAozTmM2IjSxH-308" edge="1">
          <mxGeometry relative="1" as="geometry" />
        </mxCell>
        <mxCell id="JsLvO-6XAozTmM2IjSxH-281" value="&lt;span style=&quot;font-size: 30px;&quot;&gt;CONTRATO&lt;/span&gt;" style="rounded=1;whiteSpace=wrap;html=1;" parent="1" vertex="1">
          <mxGeometry x="610" y="3335" width="240" height="100" as="geometry" />
        </mxCell>
        <mxCell id="JsLvO-6XAozTmM2IjSxH-282" value="&lt;font style=&quot;font-size: 20px;&quot;&gt;CODIGO_CONTRATO*&lt;/font&gt;" style="ellipse;whiteSpace=wrap;html=1;" parent="1" vertex="1">
          <mxGeometry x="801" y="3225" width="230" height="50" as="geometry" />
        </mxCell>
        <mxCell id="JsLvO-6XAozTmM2IjSxH-283" value="" style="endArrow=none;html=1;rounded=0;exitX=0.438;exitY=1.08;exitDx=0;exitDy=0;exitPerimeter=0;" parent="1" source="JsLvO-6XAozTmM2IjSxH-282" target="JsLvO-6XAozTmM2IjSxH-281" edge="1">
          <mxGeometry width="50" height="50" relative="1" as="geometry">
            <mxPoint x="520" y="3190" as="sourcePoint" />
            <mxPoint x="570" y="3140" as="targetPoint" />
          </mxGeometry>
        </mxCell>
        <mxCell id="JsLvO-6XAozTmM2IjSxH-286" style="edgeStyle=orthogonalEdgeStyle;rounded=0;orthogonalLoop=1;jettySize=auto;html=1;" parent="1" source="JsLvO-6XAozTmM2IjSxH-287" target="JsLvO-6XAozTmM2IjSxH-276" edge="1">
          <mxGeometry relative="1" as="geometry" />
        </mxCell>
        <mxCell id="JsLvO-6XAozTmM2IjSxH-287" value="&lt;font style=&quot;font-size: 30px;&quot;&gt;4&lt;/font&gt;" style="rhombus;whiteSpace=wrap;html=1;" parent="1" vertex="1">
          <mxGeometry x="480" y="3345" width="80" height="80" as="geometry" />
        </mxCell>
        <mxCell id="JsLvO-6XAozTmM2IjSxH-288" value="" style="endArrow=none;html=1;rounded=0;entryX=0;entryY=0.5;entryDx=0;entryDy=0;exitX=1;exitY=0.5;exitDx=0;exitDy=0;" parent="1" source="JsLvO-6XAozTmM2IjSxH-287" target="JsLvO-6XAozTmM2IjSxH-281" edge="1">
          <mxGeometry width="50" height="50" relative="1" as="geometry">
            <mxPoint x="370" y="3500" as="sourcePoint" />
            <mxPoint x="420" y="3450" as="targetPoint" />
          </mxGeometry>
        </mxCell>
        <mxCell id="JsLvO-6XAozTmM2IjSxH-289" style="edgeStyle=orthogonalEdgeStyle;rounded=0;orthogonalLoop=1;jettySize=auto;html=1;entryX=0;entryY=0.452;entryDx=0;entryDy=0;entryPerimeter=0;" parent="1" source="JsLvO-6XAozTmM2IjSxH-290" target="JsLvO-6XAozTmM2IjSxH-245" edge="1">
          <mxGeometry relative="1" as="geometry">
            <mxPoint x="1276" y="3385" as="targetPoint" />
          </mxGeometry>
        </mxCell>
        <mxCell id="JsLvO-6XAozTmM2IjSxH-290" value="&lt;font style=&quot;font-size: 30px;&quot;&gt;5&lt;/font&gt;" style="rhombus;whiteSpace=wrap;html=1;" parent="1" vertex="1">
          <mxGeometry x="930" y="3345" width="80" height="80" as="geometry" />
        </mxCell>
        <mxCell id="JsLvO-6XAozTmM2IjSxH-291" style="edgeStyle=orthogonalEdgeStyle;rounded=0;orthogonalLoop=1;jettySize=auto;html=1;entryX=0.5;entryY=1;entryDx=0;entryDy=0;" parent="1" source="JsLvO-6XAozTmM2IjSxH-292" target="JsLvO-6XAozTmM2IjSxH-281" edge="1">
          <mxGeometry relative="1" as="geometry" />
        </mxCell>
        <mxCell id="JsLvO-6XAozTmM2IjSxH-292" value="&lt;font style=&quot;font-size: 30px;&quot;&gt;6&lt;/font&gt;" style="rhombus;whiteSpace=wrap;html=1;" parent="1" vertex="1">
          <mxGeometry x="546" y="3525" width="80" height="80" as="geometry" />
        </mxCell>
        <mxCell id="JsLvO-6XAozTmM2IjSxH-293" value="" style="endArrow=none;html=1;rounded=0;entryX=0.5;entryY=1;entryDx=0;entryDy=0;" parent="1" source="JsLvO-6XAozTmM2IjSxH-278" target="JsLvO-6XAozTmM2IjSxH-292" edge="1">
          <mxGeometry width="50" height="50" relative="1" as="geometry">
            <mxPoint x="526" y="3550" as="sourcePoint" />
            <mxPoint x="576" y="3500" as="targetPoint" />
          </mxGeometry>
        </mxCell>
        <mxCell id="JsLvO-6XAozTmM2IjSxH-294" value="" style="endArrow=none;html=1;rounded=0;entryX=0;entryY=0.5;entryDx=0;entryDy=0;exitX=1;exitY=0.5;exitDx=0;exitDy=0;" parent="1" source="JsLvO-6XAozTmM2IjSxH-281" target="JsLvO-6XAozTmM2IjSxH-290" edge="1">
          <mxGeometry width="50" height="50" relative="1" as="geometry">
            <mxPoint x="846" y="3550" as="sourcePoint" />
            <mxPoint x="896" y="3500" as="targetPoint" />
          </mxGeometry>
        </mxCell>
        <mxCell id="JsLvO-6XAozTmM2IjSxH-295" value="&lt;font style=&quot;font-size: 20px;&quot;&gt;MONTO&lt;/font&gt;" style="ellipse;whiteSpace=wrap;html=1;" parent="1" vertex="1">
          <mxGeometry x="256" y="3840" width="230" height="50" as="geometry" />
        </mxCell>
        <mxCell id="JsLvO-6XAozTmM2IjSxH-296" value="" style="endArrow=none;html=1;rounded=0;entryX=0.105;entryY=1.02;entryDx=0;entryDy=0;exitX=0.702;exitY=-0.042;exitDx=0;exitDy=0;exitPerimeter=0;entryPerimeter=0;" parent="1" source="JsLvO-6XAozTmM2IjSxH-295" target="JsLvO-6XAozTmM2IjSxH-278" edge="1">
          <mxGeometry width="50" height="50" relative="1" as="geometry">
            <mxPoint x="743" y="3867" as="sourcePoint" />
            <mxPoint x="740" y="3770" as="targetPoint" />
          </mxGeometry>
        </mxCell>
        <mxCell id="JsLvO-6XAozTmM2IjSxH-297" value="&lt;font style=&quot;font-size: 20px;&quot;&gt;FECHA&lt;/font&gt;" style="ellipse;whiteSpace=wrap;html=1;" parent="1" vertex="1">
          <mxGeometry x="530" y="3890" width="230" height="50" as="geometry" />
        </mxCell>
        <mxCell id="JsLvO-6XAozTmM2IjSxH-298" value="" style="endArrow=none;html=1;rounded=0;entryX=0.967;entryY=0.973;entryDx=0;entryDy=0;exitX=0.5;exitY=0;exitDx=0;exitDy=0;entryPerimeter=0;" parent="1" source="JsLvO-6XAozTmM2IjSxH-297" target="JsLvO-6XAozTmM2IjSxH-278" edge="1">
          <mxGeometry width="50" height="50" relative="1" as="geometry">
            <mxPoint x="827" y="3795" as="sourcePoint" />
            <mxPoint x="937" y="3750" as="targetPoint" />
          </mxGeometry>
        </mxCell>
        <mxCell id="JsLvO-6XAozTmM2IjSxH-299" value="&lt;span style=&quot;font-size: 20px;&quot;&gt;CODIGO_CIUDAD*&lt;/span&gt;" style="ellipse;whiteSpace=wrap;html=1;" parent="1" vertex="1">
          <mxGeometry x="2116" y="3840" width="230" height="50" as="geometry" />
        </mxCell>
        <mxCell id="JsLvO-6XAozTmM2IjSxH-300" value="" style="endArrow=none;html=1;rounded=0;entryX=0;entryY=1;entryDx=0;entryDy=0;exitX=0.75;exitY=0;exitDx=0;exitDy=0;" parent="1" source="JsLvO-6XAozTmM2IjSxH-249" target="JsLvO-6XAozTmM2IjSxH-299" edge="1">
          <mxGeometry width="50" height="50" relative="1" as="geometry">
            <mxPoint x="2006" y="3930" as="sourcePoint" />
            <mxPoint x="2056" y="3880" as="targetPoint" />
          </mxGeometry>
        </mxCell>
        <mxCell id="JsLvO-6XAozTmM2IjSxH-301" value="&lt;span style=&quot;font-size: 20px;&quot;&gt;DNI*&lt;/span&gt;" style="ellipse;whiteSpace=wrap;html=1;" parent="1" vertex="1">
          <mxGeometry x="1936" y="3125" width="230" height="50" as="geometry" />
        </mxCell>
        <mxCell id="JsLvO-6XAozTmM2IjSxH-302" value="" style="endArrow=none;html=1;rounded=0;entryX=0.5;entryY=1;entryDx=0;entryDy=0;exitX=0.5;exitY=0;exitDx=0;exitDy=0;" parent="1" source="JsLvO-6XAozTmM2IjSxH-270" target="JsLvO-6XAozTmM2IjSxH-301" edge="1">
          <mxGeometry width="50" height="50" relative="1" as="geometry">
            <mxPoint x="1896" y="3310" as="sourcePoint" />
            <mxPoint x="1946" y="3260" as="targetPoint" />
          </mxGeometry>
        </mxCell>
        <mxCell id="JsLvO-6XAozTmM2IjSxH-303" value="&lt;span style=&quot;font-size: 20px;&quot;&gt;DNI*&lt;/span&gt;" style="ellipse;whiteSpace=wrap;html=1;" parent="1" vertex="1">
          <mxGeometry x="206" y="3155" width="230" height="50" as="geometry" />
        </mxCell>
        <mxCell id="JsLvO-6XAozTmM2IjSxH-304" value="" style="endArrow=none;html=1;rounded=0;entryX=0.5;entryY=1;entryDx=0;entryDy=0;exitX=0.5;exitY=0;exitDx=0;exitDy=0;" parent="1" source="JsLvO-6XAozTmM2IjSxH-276" target="JsLvO-6XAozTmM2IjSxH-303" edge="1">
          <mxGeometry width="50" height="50" relative="1" as="geometry">
            <mxPoint x="326" y="3350" as="sourcePoint" />
            <mxPoint x="376" y="3300" as="targetPoint" />
          </mxGeometry>
        </mxCell>
        <mxCell id="JsLvO-6XAozTmM2IjSxH-305" style="edgeStyle=orthogonalEdgeStyle;rounded=0;orthogonalLoop=1;jettySize=auto;html=1;" parent="1" source="JsLvO-6XAozTmM2IjSxH-306" target="JsLvO-6XAozTmM2IjSxH-254" edge="1">
          <mxGeometry relative="1" as="geometry" />
        </mxCell>
        <mxCell id="JsLvO-6XAozTmM2IjSxH-306" value="&lt;font style=&quot;font-size: 30px;&quot;&gt;7&lt;/font&gt;" style="rhombus;whiteSpace=wrap;html=1;" parent="1" vertex="1">
          <mxGeometry x="876" y="3580" width="80" height="80" as="geometry" />
        </mxCell>
        <mxCell id="JsLvO-6XAozTmM2IjSxH-307" style="edgeStyle=orthogonalEdgeStyle;rounded=0;orthogonalLoop=1;jettySize=auto;html=1;entryX=0.675;entryY=1.036;entryDx=0;entryDy=0;entryPerimeter=0;endArrow=none;endFill=0;" parent="1" source="JsLvO-6XAozTmM2IjSxH-306" target="JsLvO-6XAozTmM2IjSxH-281" edge="1">
          <mxGeometry relative="1" as="geometry" />
        </mxCell>
        <mxCell id="JsLvO-6XAozTmM2IjSxH-313" style="edgeStyle=orthogonalEdgeStyle;rounded=0;orthogonalLoop=1;jettySize=auto;html=1;entryX=0.5;entryY=1;entryDx=0;entryDy=0;endArrow=none;endFill=0;" parent="1" source="JsLvO-6XAozTmM2IjSxH-308" target="JsLvO-6XAozTmM2IjSxH-309" edge="1">
          <mxGeometry relative="1" as="geometry" />
        </mxCell>
        <mxCell id="JsLvO-6XAozTmM2IjSxH-315" style="edgeStyle=orthogonalEdgeStyle;rounded=0;orthogonalLoop=1;jettySize=auto;html=1;endArrow=none;endFill=0;" parent="1" source="JsLvO-6XAozTmM2IjSxH-308" target="JsLvO-6XAozTmM2IjSxH-310" edge="1">
          <mxGeometry relative="1" as="geometry" />
        </mxCell>
        <mxCell id="JsLvO-6XAozTmM2IjSxH-308" value="" style="triangle;whiteSpace=wrap;html=1;rotation=-90;" parent="1" vertex="1">
          <mxGeometry x="700" y="3110" width="60" height="80" as="geometry" />
        </mxCell>
        <mxCell id="JsLvO-6XAozTmM2IjSxH-309" value="&lt;span style=&quot;font-size: 30px;&quot;&gt;CONTRATO_VENTA&lt;/span&gt;" style="rounded=1;whiteSpace=wrap;html=1;" parent="1" vertex="1">
          <mxGeometry x="370" y="2890" width="345" height="90" as="geometry" />
        </mxCell>
        <mxCell id="JsLvO-6XAozTmM2IjSxH-310" value="&lt;span style=&quot;font-size: 30px;&quot;&gt;CONTRATO_ALQUILER&lt;/span&gt;" style="rounded=1;whiteSpace=wrap;html=1;" parent="1" vertex="1">
          <mxGeometry x="770" y="2890" width="345" height="90" as="geometry" />
        </mxCell>
        <mxCell id="JsLvO-6XAozTmM2IjSxH-316" value="&lt;font style=&quot;font-size: 20px;&quot;&gt;FECHA_INICIO&lt;/font&gt;" style="ellipse;whiteSpace=wrap;html=1;" parent="1" vertex="1">
          <mxGeometry x="774" y="2770" width="230" height="50" as="geometry" />
        </mxCell>
        <mxCell id="JsLvO-6XAozTmM2IjSxH-317" value="" style="endArrow=none;html=1;rounded=0;entryX=0.5;entryY=1;entryDx=0;entryDy=0;" parent="1" source="JsLvO-6XAozTmM2IjSxH-310" target="JsLvO-6XAozTmM2IjSxH-316" edge="1">
          <mxGeometry width="50" height="50" relative="1" as="geometry">
            <mxPoint x="860" y="3130" as="sourcePoint" />
            <mxPoint x="910" y="3080" as="targetPoint" />
          </mxGeometry>
        </mxCell>
        <mxCell id="JsLvO-6XAozTmM2IjSxH-318" value="&lt;font style=&quot;font-size: 20px;&quot;&gt;FECHA_FIN&lt;/font&gt;" style="ellipse;whiteSpace=wrap;html=1;" parent="1" vertex="1">
          <mxGeometry x="1030" y="2770" width="230" height="50" as="geometry" />
        </mxCell>
        <mxCell id="JsLvO-6XAozTmM2IjSxH-319" value="" style="endArrow=none;html=1;rounded=0;entryX=0.293;entryY=0.971;entryDx=0;entryDy=0;entryPerimeter=0;exitX=0.725;exitY=0.016;exitDx=0;exitDy=0;exitPerimeter=0;" parent="1" source="JsLvO-6XAozTmM2IjSxH-310" target="JsLvO-6XAozTmM2IjSxH-318" edge="1">
          <mxGeometry width="50" height="50" relative="1" as="geometry">
            <mxPoint x="1040" y="2910" as="sourcePoint" />
            <mxPoint x="1090" y="2860" as="targetPoint" />
          </mxGeometry>
        </mxCell>
        <mxCell id="JsLvO-6XAozTmM2IjSxH-320" value="&lt;font style=&quot;font-size: 20px;&quot;&gt;MONTO_MENSUAL&lt;/font&gt;" style="ellipse;whiteSpace=wrap;html=1;" parent="1" vertex="1">
          <mxGeometry x="1160" y="2830" width="230" height="50" as="geometry" />
        </mxCell>
        <mxCell id="JsLvO-6XAozTmM2IjSxH-321" value="" style="endArrow=none;html=1;rounded=0;entryX=0.206;entryY=0.829;entryDx=0;entryDy=0;entryPerimeter=0;exitX=0.999;exitY=0.381;exitDx=0;exitDy=0;exitPerimeter=0;" parent="1" source="JsLvO-6XAozTmM2IjSxH-310" target="JsLvO-6XAozTmM2IjSxH-320" edge="1">
          <mxGeometry width="50" height="50" relative="1" as="geometry">
            <mxPoint x="960" y="2930" as="sourcePoint" />
            <mxPoint x="1010" y="2880" as="targetPoint" />
          </mxGeometry>
        </mxCell>
        <mxCell id="JsLvO-6XAozTmM2IjSxH-322" value="&lt;font style=&quot;font-size: 20px;&quot;&gt;MONTO_TOTAL&lt;/font&gt;" style="ellipse;whiteSpace=wrap;html=1;" parent="1" vertex="1">
          <mxGeometry x="236" y="2800" width="230" height="50" as="geometry" />
        </mxCell>
        <mxCell id="JsLvO-6XAozTmM2IjSxH-326" value="" style="endArrow=none;html=1;rounded=0;exitX=0.5;exitY=1;exitDx=0;exitDy=0;" parent="1" source="JsLvO-6XAozTmM2IjSxH-322" edge="1">
          <mxGeometry width="50" height="50" relative="1" as="geometry">
            <mxPoint x="110" y="2970" as="sourcePoint" />
            <mxPoint x="440" y="2889" as="targetPoint" />
          </mxGeometry>
        </mxCell>
        <mxCell id="JsLvO-6XAozTmM2IjSxH-327" value="&lt;font style=&quot;font-size: 20px;&quot;&gt;FECHA&lt;/font&gt;" style="ellipse;whiteSpace=wrap;html=1;" parent="1" vertex="1">
          <mxGeometry x="500" y="2800" width="230" height="50" as="geometry" />
        </mxCell>
        <mxCell id="JsLvO-6XAozTmM2IjSxH-328" value="" style="endArrow=none;html=1;rounded=0;entryX=0.38;entryY=0.971;entryDx=0;entryDy=0;entryPerimeter=0;" parent="1" source="JsLvO-6XAozTmM2IjSxH-309" target="JsLvO-6XAozTmM2IjSxH-327" edge="1">
          <mxGeometry width="50" height="50" relative="1" as="geometry">
            <mxPoint x="170" y="3030" as="sourcePoint" />
            <mxPoint x="220" y="2980" as="targetPoint" />
          </mxGeometry>
        </mxCell>
        <mxCell id="JsLvO-6XAozTmM2IjSxH-329" value="&lt;font style=&quot;font-size: 20px;&quot;&gt;ANTICIPO&lt;/font&gt;" style="ellipse;whiteSpace=wrap;html=1;" parent="1" vertex="1">
          <mxGeometry x="60" y="2910" width="230" height="50" as="geometry" />
        </mxCell>
        <mxCell id="JsLvO-6XAozTmM2IjSxH-330" value="" style="endArrow=none;html=1;rounded=0;exitX=1;exitY=0.5;exitDx=0;exitDy=0;entryX=-0.007;entryY=0.381;entryDx=0;entryDy=0;entryPerimeter=0;" parent="1" source="JsLvO-6XAozTmM2IjSxH-329" target="JsLvO-6XAozTmM2IjSxH-309" edge="1">
          <mxGeometry width="50" height="50" relative="1" as="geometry">
            <mxPoint x="381" y="2860" as="sourcePoint" />
            <mxPoint x="450" y="2899" as="targetPoint" />
          </mxGeometry>
        </mxCell>
        <mxCell id="JsLvO-6XAozTmM2IjSxH-331" value="&lt;span style=&quot;font-size: 20px;&quot;&gt;CANTIDAD_CUOTAS&lt;/span&gt;" style="ellipse;whiteSpace=wrap;html=1;" parent="1" vertex="1">
          <mxGeometry x="60" y="2980" width="230" height="50" as="geometry" />
        </mxCell>
        <mxCell id="JsLvO-6XAozTmM2IjSxH-332" value="" style="endArrow=none;html=1;rounded=0;exitX=1;exitY=0.5;exitDx=0;exitDy=0;entryX=0;entryY=1;entryDx=0;entryDy=0;" parent="1" source="JsLvO-6XAozTmM2IjSxH-331" target="JsLvO-6XAozTmM2IjSxH-309" edge="1">
          <mxGeometry width="50" height="50" relative="1" as="geometry">
            <mxPoint x="314" y="2933" as="sourcePoint" />
            <mxPoint x="378" y="2934" as="targetPoint" />
          </mxGeometry>
        </mxCell>
        <mxCell id="JsLvO-6XAozTmM2IjSxH-333" value="&lt;span style=&quot;font-size: 20px;&quot;&gt;MONTO_TOTAL&lt;/span&gt;" style="ellipse;whiteSpace=wrap;html=1;" parent="1" vertex="1">
          <mxGeometry x="74" y="2850" width="230" height="50" as="geometry" />
        </mxCell>
        <mxCell id="JsLvO-6XAozTmM2IjSxH-334" value="" style="endArrow=none;html=1;rounded=0;entryX=1;entryY=1;entryDx=0;entryDy=0;exitX=0;exitY=0;exitDx=0;exitDy=0;" parent="1" source="JsLvO-6XAozTmM2IjSxH-309" target="JsLvO-6XAozTmM2IjSxH-333" edge="1">
          <mxGeometry width="50" height="50" relative="1" as="geometry">
            <mxPoint x="270" y="2920" as="sourcePoint" />
            <mxPoint x="320" y="2870" as="targetPoint" />
          </mxGeometry>
        </mxCell>
        <mxCell id="FAuwY-fi24FpYzwKTLBy-1" value="&lt;font style=&quot;font-size: 30px;&quot;&gt;PUBLICACION&lt;/font&gt;" style="rounded=1;whiteSpace=wrap;html=1;" vertex="1" parent="1">
          <mxGeometry x="1481" y="2775" width="240" height="100" as="geometry" />
        </mxCell>
        <mxCell id="FAuwY-fi24FpYzwKTLBy-2" value="&lt;span style=&quot;font-size: 20px;&quot;&gt;ALQUIELER_O_VENTA&lt;/span&gt;" style="ellipse;whiteSpace=wrap;html=1;" vertex="1" parent="1">
          <mxGeometry x="1500" y="2680" width="230" height="50" as="geometry" />
        </mxCell>
        <mxCell id="FAuwY-fi24FpYzwKTLBy-3" value="" style="endArrow=none;html=1;rounded=0;entryX=0.446;entryY=1.047;entryDx=0;entryDy=0;entryPerimeter=0;exitX=0.5;exitY=0;exitDx=0;exitDy=0;" edge="1" parent="1" source="FAuwY-fi24FpYzwKTLBy-1" target="FAuwY-fi24FpYzwKTLBy-2">
          <mxGeometry width="50" height="50" relative="1" as="geometry">
            <mxPoint x="1430" y="2885" as="sourcePoint" />
            <mxPoint x="1480" y="2835" as="targetPoint" />
          </mxGeometry>
        </mxCell>
        <mxCell id="FAuwY-fi24FpYzwKTLBy-4" value="&lt;span style=&quot;font-size: 20px;&quot;&gt;MONTO_DESEADO&lt;/span&gt;" style="ellipse;whiteSpace=wrap;html=1;" vertex="1" parent="1">
          <mxGeometry x="1820" y="2750" width="230" height="50" as="geometry" />
        </mxCell>
        <mxCell id="FAuwY-fi24FpYzwKTLBy-5" value="" style="endArrow=none;html=1;rounded=0;entryX=0.099;entryY=0.78;entryDx=0;entryDy=0;entryPerimeter=0;exitX=1;exitY=0.25;exitDx=0;exitDy=0;" edge="1" parent="1" source="FAuwY-fi24FpYzwKTLBy-1" target="FAuwY-fi24FpYzwKTLBy-4">
          <mxGeometry width="50" height="50" relative="1" as="geometry">
            <mxPoint x="1570" y="2975" as="sourcePoint" />
            <mxPoint x="1620" y="2925" as="targetPoint" />
          </mxGeometry>
        </mxCell>
        <mxCell id="FAuwY-fi24FpYzwKTLBy-7" style="edgeStyle=orthogonalEdgeStyle;rounded=0;orthogonalLoop=1;jettySize=auto;html=1;entryX=0.5;entryY=1;entryDx=0;entryDy=0;endArrow=none;endFill=0;" edge="1" parent="1" source="FAuwY-fi24FpYzwKTLBy-6" target="FAuwY-fi24FpYzwKTLBy-1">
          <mxGeometry relative="1" as="geometry" />
        </mxCell>
        <mxCell id="FAuwY-fi24FpYzwKTLBy-8" style="edgeStyle=orthogonalEdgeStyle;rounded=0;orthogonalLoop=1;jettySize=auto;html=1;entryX=0.75;entryY=0;entryDx=0;entryDy=0;" edge="1" parent="1" source="FAuwY-fi24FpYzwKTLBy-6" target="JsLvO-6XAozTmM2IjSxH-246">
          <mxGeometry relative="1" as="geometry" />
        </mxCell>
        <mxCell id="FAuwY-fi24FpYzwKTLBy-6" value="&lt;font style=&quot;font-size: 30px;&quot;&gt;8&lt;/font&gt;" style="rhombus;whiteSpace=wrap;html=1;" vertex="1" parent="1">
          <mxGeometry x="1561" y="2950" width="80" height="80" as="geometry" />
        </mxCell>
        <mxCell id="FAuwY-fi24FpYzwKTLBy-9" value="&lt;span style=&quot;font-size: 20px;&quot;&gt;CODIGO_PUBLICACION*&lt;/span&gt;" style="ellipse;whiteSpace=wrap;html=1;" vertex="1" parent="1">
          <mxGeometry x="1800" y="2840" width="260" height="50" as="geometry" />
        </mxCell>
        <mxCell id="FAuwY-fi24FpYzwKTLBy-10" value="" style="endArrow=none;html=1;rounded=0;entryX=0;entryY=0.5;entryDx=0;entryDy=0;exitX=1;exitY=0.75;exitDx=0;exitDy=0;" edge="1" parent="1" source="FAuwY-fi24FpYzwKTLBy-1" target="FAuwY-fi24FpYzwKTLBy-9">
          <mxGeometry width="50" height="50" relative="1" as="geometry">
            <mxPoint x="1710" y="2990" as="sourcePoint" />
            <mxPoint x="1760" y="2940" as="targetPoint" />
          </mxGeometry>
        </mxCell>
      </root>
    </mxGraphModel>
  </diagram>
</mxfile>
